<svg width="71" height="15" viewBox="0 0 71 15" fill="none" xmlns="http://www.w3.org/2000/svg">
<path d="M5.24023 10.9878C7.2244 11.7796 9.52928 11.8211 11.4704 10.9685C13.7981 9.94619 15.5314 7.12592 19.5252 7.50088C21.3002 7.50049 25.2939 12.0003 27.0689 12.3757C29.2877 13.1253 32.064 8.03256 34.1689 8.62549C35.5002 9.00049 42.181 13.3713 43.4877 13.1255C44.616 12.9132 47.4898 9.65964 48.3689 10.5005C49.3115 11.4021 50.8532 12.9712 52.3627 13.1255C54.5519 13.3492 55.9675 12.9225 58.1314 12.7505" stroke="#f2f2f2" stroke-width="3" stroke-linecap="round"/>
<path d="M67.9313 4.15808C67.6658 4.20572 66.7047 4.31445 66.5579 4.7526C66.3244 5.44947 67.8262 5.69186 68.235 5.66241C69.1003 5.60008 70.2396 5.09137 69.4709 4.33818C68.0062 2.90299 65.8456 2.67948 63.6309 2.5271" stroke="#f2f2f2" stroke-width="1.5" stroke-linecap="round"/>
</svg>
