<svg width="2800" height="7005" viewBox="0 0 2800 7005" fill="none" style="opacity: .7" xmlns="http://www.w3.org/2000/svg">
<rect width="2800" height="7000" fill="#F4F7FF"/>
<path d="M1007.9 2308.1C1019.6 2330.2 1032.4 2349.9 1027.1 2363.7C1021.8 2377.5 998.399 2385.5 980.199 2382.5C961.899 2379.5 948.799 2365.6 936.799 2347.9C924.799 2330.2 913.799 2308.8 920.399 2289.7C926.899 2270.5 950.999 2253.7 968.299 2257.6C985.599 2261.4 996.199 2286 1007.9 2308.1Z" fill="#003478" fill-opacity="0.14"/>
<path d="M937.5 1442.7C943.6 1452.9 930.5 1474.5 917.9 1493.3C905.3 1512 893.1 1528 880.2 1528.5C867.3 1529 853.5 1513.9 842.4 1495.9C831.2 1478 822.6 1457.1 829.5 1446.4C836.3 1435.7 858.7 1435.2 882.4 1434.3C906.2 1433.5 931.4 1432.4 937.5 1442.7Z" fill="#003478" fill-opacity="0.14"/>
<path d="M1973.1 2237.8C1978.7 2251.3 1967.2 2270.9 1955.9 2288.4C1944.5 2305.9 1933.2 2321.4 1920.1 2322.5C1906.9 2323.6 1891.9 2310.3 1884.6 2295.1C1877.3 2279.9 1877.7 2262.8 1885.2 2248.2C1892.8 2233.7 1907.4 2221.6 1926.1 2219.3C1944.7 2217 1967.4 2224.3 1973.1 2237.8Z" fill="#003478" fill-opacity="0.14"/>
<path d="M1474.8 4296.1C1480 4313.6 1473.6 4329.3 1465.2 4340.7C1456.8 4352.1 1446.4 4359.1 1435.6 4359.3C1424.7 4359.6 1413.5 4353 1403 4340.4C1392.4 4327.9 1382.7 4309.2 1388.3 4291.4C1393.9 4273.6 1415 4256.6 1433.9 4257.8C1452.8 4259 1469.6 4278.5 1474.8 4296.1Z" fill="#003478" fill-opacity="0.14"/>
<path d="M176.2 3974.1C186.8 3990.6 184 4016.5 172 4031.9C160.1 4047.2 139.1 4051.9 123 4049C106.9 4046.1 95.7997 4035.7 82.6997 4019.7C69.6997 4003.8 54.6997 3982.3 60.2997 3968.6C65.7997 3954.9 91.8997 3949 116.9 3949.7C141.9 3950.3 165.7 3957.5 176.2 3974.1Z" fill="#003478" fill-opacity="0.14"/>
<path d="M254.7 4884.9C261.5 4892.9 264.8 4902.8 274.3 4914.7C283.8 4926.7 299.6 4940.7 299.8 4952.7C300.1 4964.7 284.9 4974.7 270.2 4985.1C255.5 4995.4 241.2 5006 230.2 5001.6C219.2 4997.2 211.3 4977.8 195.9 4967.7C180.6 4957.6 157.6 4956.8 151.7 4948.2C145.8 4939.6 157 4923.3 167.8 4911.9C178.6 4900.6 189 4894.3 198.8 4887.2C208.6 4880.2 217.8 4872.4 227.6 4871.5C237.4 4870.7 247.8 4876.8 254.7 4884.9Z" fill="#003478" fill-opacity="0.14"/>
<path d="M2610.6 5095.8C2622.8 5099.4 2641.5 5099.3 2652 5107.6C2662.6 5115.9 2665.1 5132.5 2661.6 5148.5C2658.1 5164.4 2648.7 5179.6 2635.2 5191.5C2621.8 5203.4 2604.4 5212 2588.1 5210.5C2571.8 5209 2556.5 5197.5 2542.1 5185.9C2527.7 5174.3 2514.1 5162.7 2515 5150.1C2515.9 5137.4 2531.4 5123.7 2540.4 5111.6C2549.5 5099.5 2552.1 5089.1 2558.8 5083.7C2565.5 5078.4 2576.3 5078.2 2584.5 5081.6C2592.7 5085.1 2598.4 5092.2 2610.6 5095.8Z" fill="#003478" fill-opacity="0.14"/>
<path d="M442.266 1868.92C449.866 1870.82 449.966 1888.22 455.866 1901.32C461.666 1914.42 473.266 1923.22 480.066 1935.92C486.766 1948.62 488.666 1965.22 480.166 1973.62C471.566 1982.12 452.666 1982.42 438.266 1980.52C423.866 1978.62 414.166 1974.52 406.266 1971.12C398.466 1967.72 392.666 1965.12 381.866 1964.92C371.166 1964.72 355.566 1966.92 342.566 1961.92C329.566 1956.82 319.066 1944.42 320.066 1932.52C320.966 1920.72 333.266 1909.42 340.966 1895.12C348.666 1880.82 351.766 1863.62 361.566 1863.02C371.366 1862.42 387.866 1878.52 403.666 1879.62C419.466 1880.82 434.666 1867.12 442.266 1868.92Z" fill="#003478" fill-opacity="0.14"/>
<path d="M2406.2 3942.7C2414.8 3947.6 2419.9 3958.8 2430.3 3969.4C2440.7 3980 2456.5 3990 2461.7 4003C2466.9 4016 2461.5 4032 2450.9 4042.3C2440.3 4052.5 2424.4 4057.1 2410.6 4063.1C2396.7 4069 2384.9 4076.5 2373.5 4075.5C2362.2 4074.6 2351.5 4065.3 2340 4057.9C2328.6 4050.5 2316.5 4045.1 2308 4035.7C2299.6 4026.4 2294.8 4013.2 2292.6 3998.7C2290.4 3984.2 2290.8 3968.5 2300.2 3960.9C2309.6 3953.2 2328.1 3953.7 2341.7 3951.7C2355.3 3949.7 2364.2 3945.3 2374.7 3942.4C2385.3 3939.4 2397.5 3937.9 2406.2 3942.7Z" fill="#003478" fill-opacity="0.14"/>
<g clip-path="url(#clip0_275_417)">
<path d="M226.7 212.3C239.3 232.9 241.4 260.7 229.9 279.1C218.3 297.5 193.2 306.5 168.8 306C144.4 305.6 120.8 295.7 110.2 277.8C99.5001 260 101.8 234 113.6 213.9C125.4 193.8 146.7 179.4 168.9 178.8C191.1 178.3 214.2 191.7 226.7 212.3Z" fill="#003478" fill-opacity="0.14"/>
<path d="M754.201 183.8C765.401 186.5 778.301 192.3 780.801 201.3C783.301 210.2 775.401 222.1 766.901 229.6C758.501 237 749.501 239.8 742.201 243.1C735.001 246.3 729.501 249.8 717.501 258.7C705.601 267.6 687.201 281.8 675.701 279.9C664.201 278.1 659.701 260.2 663.601 245.8C667.401 231.4 679.701 220.5 684.401 207.4C689.001 194.3 686.101 179 691.401 174.4C696.701 169.8 710.401 175.9 721.901 178.8C733.501 181.6 743.001 181.2 754.201 183.8Z" fill="#FFBB3D" fill-opacity="0.2"/>
<path d="M496.9 511.9C511.1 516.6 520.4 533.9 515.5 548.7C510.5 563.5 491.4 575.8 484.8 591.1C478.2 606.3 484.2 624.4 479.5 635.7C474.8 647 459.4 651.4 442.7 653.3C426 655.1 407.9 654.3 397 645.1C386 635.8 382.2 618.1 383.9 603.2C385.5 588.4 392.6 576.5 395.1 561.4C397.7 546.3 395.6 528 403 521C410.4 514.1 427.2 518.5 445.2 516.8C463.3 515.1 482.6 507.2 496.9 511.9Z" fill="#FFBB3D" fill-opacity="0.2"/>
<path d="M657.501 403.1C670.601 408.5 686.601 414 691.401 424.2C696.301 434.4 689.901 449.4 685.701 465.9C681.501 482.4 679.401 500.4 669.501 505C659.601 509.7 641.801 500.9 627.601 495.9C613.501 490.8 603.001 489.6 595.501 484.2C587.901 478.8 583.301 469.2 580.801 459.5C578.301 449.8 577.901 439.8 577.401 426.3C576.801 412.7 576.201 395.5 583.901 388.4C591.701 381.3 607.801 384.4 621.001 388.5C634.201 392.6 644.401 397.8 657.501 403.1Z" fill="#003478" fill-opacity="0.14"/>
<path d="M152.699 466.1C165.099 475.2 178.699 482.5 187.299 494.8C195.799 507.1 199.399 524.3 195.699 540.4C192.099 556.5 181.299 571.4 167.199 583.1C152.999 594.7 135.499 603.1 121.399 598.4C107.299 593.7 96.5992 575.9 80.9992 564.7C65.3992 553.6 44.7992 549 41.6992 538.9C38.5992 528.8 52.8992 513.1 62.1992 499.3C71.4992 485.6 75.6992 473.6 84.1992 463.2C92.6992 452.8 105.299 444 117.199 445C129.199 446 140.299 457 152.699 466.1Z" fill="#003478" fill-opacity="0.14"/>
<path d="M574.983 191.047C578.983 198.347 568.983 220.447 568.083 235.447C567.183 250.447 575.383 258.347 575.583 265.447C575.783 272.547 568.083 278.947 559.983 289.547C551.883 300.247 543.383 315.147 532.283 318.847C521.183 322.547 507.483 314.847 500.383 303.847C493.283 292.947 492.883 278.547 484.383 264.147C475.883 249.647 459.383 235.047 458.083 221.247C456.783 207.547 470.883 194.547 486.283 190.947C501.583 187.447 518.283 193.347 535.683 192.447C552.983 191.547 570.983 183.847 574.983 191.047Z" fill="#FFBB3D" fill-opacity="0.2"/>
</g>
<path d="M908.101 227C918.801 236.7 926.901 247.9 929.001 259.9C931.101 271.8 927.201 284.4 922.801 296.5C918.401 308.6 913.601 320.3 904.901 329.6C896.101 338.9 883.601 345.9 868.601 349.3C853.601 352.6 836.101 352.3 828.101 342.7C820.101 333.2 821.501 314.4 814.401 297.3C807.301 280.2 791.801 264.7 794.801 255.1C797.701 245.6 819.201 241.9 835.001 233.9C850.801 225.9 860.901 213.6 872.601 211.4C884.201 209.3 897.501 217.3 908.101 227Z" fill="#003478" fill-opacity="0.14"/>
<path d="M652.9 3786.5C669.5 3799.8 679.6 3822.9 678.5 3844.8C677.3 3866.8 664.9 3887.6 648.2 3902.5C631.6 3917.3 610.8 3926.2 591.7 3924.5C572.5 3922.9 555.1 3910.6 538.7 3895.8C522.3 3880.9 507 3863.5 505.6 3844.6C504.1 3825.7 516.7 3805.4 533 3792.2C549.4 3778.9 569.7 3772.6 591.4 3771.2C613.1 3769.8 636.2 3773.2 652.9 3786.5Z" fill="#003478" fill-opacity="0.14"/>
<path d="M397.8 4583.7C405.8 4595.7 414.7 4600.1 416.9 4606.7C419 4613.3 414.3 4622.1 407.7 4626.5C401 4630.8 392.4 4630.8 386.8 4640.2C381.2 4649.6 378.6 4668.5 375.5 4669.1C372.5 4669.7 369 4652.1 360.8 4643.5C352.6 4635 339.8 4635.4 334.1 4630.6C328.4 4625.8 329.9 4615.6 328.3 4599.6C326.8 4583.6 322.2 4561.6 329.6 4549.4C337.1 4537.1 356.5 4534.6 369.7 4543.2C382.9 4551.8 389.9 4571.6 397.8 4583.7Z" fill="#003478" fill-opacity="0.14"/>
<path d="M2057.2 6575.6C2061.1 6588.3 2055.3 6607.3 2060.7 6619.1C2066 6630.9 2082.5 6635.5 2087.2 6642.7C2091.9 6649.9 2084.8 6659.9 2077.4 6668.2C2070 6676.5 2062.4 6683.1 2053.8 6684.5C2045.1 6685.9 2035.6 6682.1 2022.6 6688C2009.6 6694 1993.1 6709.7 1989.1 6705.7C1985.1 6701.6 1993.6 6677.7 1997.4 6663.5C2001.2 6649.2 2000.3 6644.6 1990.9 6634.6C1981.5 6624.5 1963.5 6609 1963.8 6601.9C1964.1 6594.7 1982.6 6595.7 1996 6588.5C2009.4 6581.2 2017.7 6565.6 2028.7 6561C2039.6 6556.4 2053.2 6562.8 2057.2 6575.6Z" fill="#FFBB3D" fill-opacity="0.2"/>
<path d="M1584.9 5739.2C1592.7 5739.8 1597.5 5749.8 1604 5759.3C1610.6 5768.8 1619 5777.9 1624.1 5790C1629.2 5802 1631.1 5817 1622.1 5822.3C1613.1 5827.7 1593.3 5823.4 1580.3 5830.9C1567.4 5838.4 1561.2 5857.6 1552.4 5862.1C1543.7 5866.5 1532.3 5856.2 1528.4 5843.5C1524.4 5830.8 1527.8 5815.8 1522 5806C1516.3 5796.2 1501.4 5791.6 1500.6 5786.5C1499.8 5781.5 1513.1 5776 1522.3 5772.2C1531.5 5768.4 1536.7 5766.3 1541.5 5764C1546.2 5761.6 1550.6 5759 1558.3 5753.2C1566 5747.5 1577 5738.7 1584.9 5739.2Z" fill="#FFBB3D" fill-opacity="0.2"/>
<path d="M1780.7 6727.1C1793.1 6736.2 1806.7 6743.5 1815.3 6755.8C1823.8 6768.1 1827.4 6785.3 1823.7 6801.4C1820.1 6817.5 1809.3 6832.4 1795.2 6844.1C1781 6855.7 1763.5 6864.1 1749.4 6859.4C1735.3 6854.7 1724.6 6836.9 1709 6825.7C1693.4 6814.6 1672.8 6810 1669.7 6799.9C1666.6 6789.8 1680.9 6774.1 1690.2 6760.3C1699.5 6746.6 1703.7 6734.6 1712.2 6724.2C1720.7 6713.8 1733.3 6705 1745.2 6706C1757.2 6707 1768.3 6718 1780.7 6727.1Z" fill="#003478" fill-opacity="0.14"/>
<path d="M2335.1 6023.8C2340.7 6037.3 2329.2 6056.9 2317.9 6074.4C2306.5 6091.9 2295.2 6107.4 2282.1 6108.5C2268.9 6109.6 2253.9 6096.3 2246.6 6081.1C2239.3 6065.9 2239.7 6048.8 2247.2 6034.2C2254.8 6019.7 2269.4 6007.6 2288.1 6005.3C2306.7 6003 2329.4 6010.3 2335.1 6023.8Z" fill="#003478" fill-opacity="0.14"/>
<path d="M1952.3 5872.7C1960.8 5879.7 1968.5 5886.1 1971 5894.2C1973.5 5902.3 1970.8 5912.1 1976.4 5925.2C1982 5938.3 1995.8 5954.6 1992.7 5961.6C1989.5 5968.5 1969.3 5966.2 1955.2 5963.2C1941.1 5960.2 1933 5956.5 1921.9 5961.9C1910.7 5967.3 1896.4 5981.9 1891.8 5979.4C1887.3 5976.8 1892.6 5957.3 1891.9 5944.9C1891.3 5932.5 1884.8 5927.2 1881.6 5920.2C1878.5 5913.1 1878.7 5904.2 1879.8 5892.7C1880.9 5881.1 1882.9 5866.8 1890.6 5859.2C1898.3 5851.7 1911.6 5850.9 1923 5854.4C1934.4 5857.8 1943.7 5865.6 1952.3 5872.7Z" fill="#FFBB3D" fill-opacity="0.2"/>
<g clip-path="url(#clip1_275_417)">
<path d="M668.201 6616.1C674.101 6627.2 666.501 6650.3 661.401 6665.3C656.301 6680.3 653.801 6687.2 653.401 6696.9C653.101 6706.6 655.001 6719.1 650.301 6732.8C645.601 6746.5 634.301 6761.5 621.201 6764C608.101 6766.4 593.301 6756.4 578.001 6746.2C562.701 6735.9 546.901 6725.4 540.701 6710.7C534.501 6696 537.801 6677.2 549.401 6667.2C561.001 6657.2 581.001 6656 594.701 6647.4C608.401 6638.7 615.701 6622.7 629.101 6614.3C642.601 6605.8 662.201 6605 668.201 6616.1Z" fill="#FFBB3D" fill-opacity="0.2"/>
<path d="M583.1 6656.9C590.9 6661.2 591.3 6677 596.6 6691.6C601.8 6706.2 612 6719.7 610.9 6731.4C609.9 6743.2 597.6 6753.3 584.7 6758.9C571.9 6764.5 558.4 6765.5 544.3 6766.4C530.1 6767.4 515.2 6768.4 503.5 6762.5C491.8 6756.6 483.2 6743.7 482 6730.7C480.8 6717.6 487 6704.4 489.5 6687.9C492 6671.4 490.8 6651.6 499.5 6647.5C508.1 6643.5 526.6 6655.1 543.4 6657.4C560.2 6659.6 575.3 6652.5 583.1 6656.9Z" fill="#003478" fill-opacity="0.14"/>
</g>
<path d="M1017.6 3829.8C1029.8 3833.4 1048.5 3833.3 1059 3841.6C1069.6 3849.9 1072.1 3866.5 1068.6 3882.5C1065.1 3898.4 1055.7 3913.6 1042.2 3925.5C1028.8 3937.4 1011.4 3946 995.099 3944.5C978.799 3943 963.499 3931.5 949.099 3919.9C934.699 3908.3 921.099 3896.7 921.999 3884.1C922.899 3871.4 938.399 3857.7 947.399 3845.6C956.499 3833.5 959.099 3823.1 965.799 3817.7C972.499 3812.4 983.299 3812.2 991.499 3815.6C999.699 3819.1 1005.4 3826.2 1017.6 3829.8Z" fill="#003478" fill-opacity="0.14"/>
<path d="M1400.6 1418.9C1409.1 1418.5 1412.1 1433 1411.2 1445.2C1410.3 1457.3 1405.5 1467.2 1409.2 1479.1C1412.9 1491.1 1425.1 1505.2 1423.2 1512.6C1421.4 1519.9 1405.4 1520.4 1393.1 1521.7C1380.9 1523.1 1372.5 1525.2 1363.3 1526.5C1354.1 1527.7 1344.2 1528 1338.1 1523.2C1332 1518.3 1329.6 1508.3 1325.6 1499.7C1321.6 1491.1 1315.9 1484.1 1318.2 1478.3C1320.4 1472.5 1330.6 1468.1 1332.1 1455.1C1333.6 1442.1 1326.3 1420.6 1330.2 1418.3C1334 1416 1349 1432.9 1363.5 1433.7C1378.1 1434.5 1392.1 1419.2 1400.6 1418.9Z" fill="#FFBB3D" fill-opacity="0.2"/>
<path d="M1220.6 4561.9C1229.1 4561.5 1232.1 4576 1231.2 4588.2C1230.3 4600.3 1225.5 4610.2 1229.2 4622.1C1232.9 4634.1 1245.1 4648.2 1243.2 4655.6C1241.4 4662.9 1225.4 4663.4 1213.1 4664.7C1200.9 4666.1 1192.5 4668.2 1183.3 4669.5C1174.1 4670.7 1164.2 4671 1158.1 4666.2C1152 4661.3 1149.6 4651.3 1145.6 4642.7C1141.6 4634.1 1135.9 4627.1 1138.2 4621.3C1140.4 4615.5 1150.6 4611.1 1152.1 4598.1C1153.6 4585.1 1146.3 4563.6 1150.2 4561.3C1154 4559 1169 4575.9 1183.5 4576.7C1198.1 4577.5 1212.1 4562.2 1220.6 4561.9Z" fill="#FFBB3D" fill-opacity="0.2"/>
<path d="M283.001 6774C298.401 6779 322.001 6778.9 322.401 6785.2C322.801 6791.6 300.001 6804.2 294.401 6822.7C288.701 6841.1 300.101 6865.3 296.101 6869.6C292.001 6873.8 272.501 6858.1 259.201 6849.6C245.901 6841.1 238.701 6839.8 234.401 6835.6C230.001 6831.5 228.301 6824.5 217.501 6814.9C206.601 6805.3 186.401 6793.1 188.201 6788C189.901 6782.9 213.501 6785 227.901 6779.6C242.401 6774.3 247.701 6761.6 254.001 6760.2C260.301 6758.9 267.501 6768.9 283.001 6774Z" fill="#FFBB3D" fill-opacity="0.2"/>
<path d="M549.2 4984.6C560.2 4987.2 562.9 5006.4 564.2 5023.2C565.5 5039.9 565.5 5054.1 559.9 5065.1C554.4 5076.1 543.5 5083.9 532.6 5086.5C521.7 5089.1 510.8 5086.4 498.1 5089C485.4 5091.6 470.8 5099.5 460.9 5096.6C451.1 5093.6 446.1 5079.9 449 5068.4C451.8 5056.9 462.5 5047.6 467 5037C471.4 5026.3 469.5 5014.4 474 5009.8C478.4 5005.1 489.2 5007.8 504.2 5002.1C519.2 4996.3 538.3 4982.1 549.2 4984.6Z" fill="#FFBB3D" fill-opacity="0.2"/>
<path d="M1423.2 455.5C1430.9 467.8 1432.1 482.4 1431.2 494.2C1430.2 506 1427.1 515 1428.9 530.6C1430.7 546.2 1437.4 568.4 1431.2 578.3C1425.1 588.2 1406 585.8 1387 585.8C1368 585.8 1348.9 588.2 1336.1 580.5C1323.4 572.7 1316.9 554.8 1315.3 538.1C1313.7 521.4 1316.9 505.8 1326.8 497.7C1336.7 489.6 1353.3 489 1364.4 477.8C1375.5 466.6 1381.3 444.9 1391.2 439.1C1401.2 433.2 1415.4 443.2 1423.2 455.5Z" fill="#FFBB3D" fill-opacity="0.2"/>
<path d="M1938.4 1345.3C1947.1 1352.4 1945.6 1372.7 1944.6 1388.5C1943.7 1404.2 1943.2 1415.3 1942.3 1428.9C1941.4 1442.5 1940.2 1458.6 1931.7 1464.4C1923.3 1470.2 1907.7 1465.8 1891.9 1466C1876.2 1466.1 1860.4 1470.7 1845.1 1467.1C1829.8 1463.5 1814.9 1451.7 1813.7 1437.8C1812.5 1423.9 1824.8 1408.1 1834.6 1395.5C1844.4 1382.9 1851.7 1373.7 1860.8 1366.7C1870 1359.8 1881 1355 1895.9 1349.6C1910.9 1344.2 1929.7 1338.2 1938.4 1345.3Z" fill="#003478" fill-opacity="0.14"/>
<path d="M315.1 3116.8C320.7 3130.3 309.2 3149.9 297.9 3167.4C286.5 3184.9 275.2 3200.4 262.1 3201.5C248.9 3202.6 233.9 3189.3 226.6 3174.1C219.3 3158.9 219.7 3141.8 227.2 3127.2C234.8 3112.7 249.4 3100.6 268.1 3098.3C286.7 3096 309.4 3103.3 315.1 3116.8Z" fill="#003478" fill-opacity="0.14"/>
<path d="M1342.2 880.6C1352.7 892.2 1361.7 904.1 1365.8 920.1C1369.8 936 1368.9 956 1358.5 967.2C1348 978.5 1328 980.9 1312.3 976.6C1296.6 972.3 1285.2 961.3 1271.1 950C1257 938.8 1240.2 927.4 1237.3 913.1C1234.4 898.8 1245.5 881.7 1259.6 870C1273.7 858.4 1290.8 852.3 1305.4 854.9C1319.9 857.6 1331.8 869 1342.2 880.6Z" fill="#003478" fill-opacity="0.14"/>
<path d="M1924.5 148.2C1940.2 159.2 1957.2 168.8 1962.8 182.8C1968.4 196.9 1962.5 215.4 1954.3 230.8C1946.1 246.2 1935.5 258.5 1922.7 269.4C1909.9 280.3 1895 289.7 1880.4 289.1C1865.9 288.5 1851.8 277.9 1836.2 267.9C1820.7 257.9 1803.7 248.6 1795.7 234C1787.7 219.4 1788.6 199.5 1796.9 184.4C1805.1 169.3 1820.7 159.1 1835.8 147.9C1850.8 136.7 1865.4 124.6 1879.9 124.7C1894.4 124.9 1908.8 137.2 1924.5 148.2Z" fill="#FFBB3D" fill-opacity="0.2"/>
<path d="M1723.5 4948.1C1736.6 4953.5 1752.6 4959 1757.4 4969.2C1762.3 4979.4 1755.9 4994.4 1751.7 5010.9C1747.5 5027.4 1745.4 5045.4 1735.5 5050C1725.6 5054.7 1707.8 5045.9 1693.6 5040.9C1679.5 5035.8 1669 5034.6 1661.5 5029.2C1653.9 5023.8 1649.3 5014.2 1646.8 5004.5C1644.3 4994.8 1643.9 4984.8 1643.4 4971.3C1642.8 4957.7 1642.2 4940.5 1649.9 4933.4C1657.7 4926.3 1673.8 4929.4 1687 4933.5C1700.2 4937.6 1710.4 4942.8 1723.5 4948.1Z" fill="#003478" fill-opacity="0.14"/>
<path d="M399.599 944.8C411.799 948.4 430.499 948.3 440.999 956.6C451.599 964.9 454.099 981.5 450.599 997.5C447.099 1013.4 437.699 1028.6 424.199 1040.5C410.799 1052.4 393.399 1061 377.099 1059.5C360.799 1058 345.499 1046.5 331.099 1034.9C316.699 1023.3 303.099 1011.7 303.999 999.1C304.899 986.4 320.399 972.7 329.399 960.6C338.499 948.5 341.099 938.1 347.799 932.7C354.499 927.4 365.299 927.2 373.499 930.6C381.699 934.1 387.399 941.2 399.599 944.8Z" fill="#003478" fill-opacity="0.14"/>
<path d="M2433.6 3551.9C2442.1 3551.5 2445.1 3566 2444.2 3578.2C2443.3 3590.3 2438.5 3600.2 2442.2 3612.1C2445.9 3624.1 2458.1 3638.2 2456.2 3645.6C2454.4 3652.9 2438.4 3653.4 2426.1 3654.7C2413.9 3656.1 2405.5 3658.2 2396.3 3659.5C2387.1 3660.7 2377.2 3661 2371.1 3656.2C2365 3651.3 2362.6 3641.3 2358.6 3632.7C2354.6 3624.1 2348.9 3617.1 2351.2 3611.3C2353.4 3605.5 2363.6 3601.1 2365.1 3588.1C2366.6 3575.1 2359.3 3553.6 2363.2 3551.3C2367 3549 2382 3565.9 2396.5 3566.7C2411.1 3567.5 2425.1 3552.2 2433.6 3551.9Z" fill="#FFBB3D" fill-opacity="0.2"/>
<path d="M746.5 4054.2C762.2 4065.2 779.2 4074.8 784.8 4088.8C790.4 4102.9 784.5 4121.4 776.3 4136.8C768.1 4152.2 757.5 4164.5 744.7 4175.4C731.9 4186.3 717 4195.7 702.4 4195.1C687.9 4194.5 673.8 4183.9 658.2 4173.9C642.7 4163.9 625.7 4154.6 617.7 4140C609.7 4125.4 610.6 4105.5 618.9 4090.4C627.1 4075.3 642.7 4065.1 657.8 4053.9C672.8 4042.7 687.4 4030.6 701.9 4030.7C716.4 4030.9 730.8 4043.2 746.5 4054.2Z" fill="#FFBB3D" fill-opacity="0.2"/>
<path d="M293.1 4216.8C298.7 4230.3 287.2 4249.9 275.9 4267.4C264.5 4284.9 253.2 4300.4 240.1 4301.5C226.9 4302.6 211.9 4289.3 204.6 4274.1C197.3 4258.9 197.7 4241.8 205.2 4227.2C212.8 4212.7 227.4 4200.6 246.1 4198.3C264.7 4196 287.4 4203.3 293.1 4216.8Z" fill="#003478" fill-opacity="0.14"/>
<path d="M2307.7 5178.1C2320.1 5187.2 2333.7 5194.5 2342.3 5206.8C2350.8 5219.1 2354.4 5236.3 2350.7 5252.4C2347.1 5268.5 2336.3 5283.4 2322.2 5295.1C2308 5306.7 2290.5 5315.1 2276.4 5310.4C2262.3 5305.7 2251.6 5287.9 2236 5276.7C2220.4 5265.6 2199.8 5261 2196.7 5250.9C2193.6 5240.8 2207.9 5225.1 2217.2 5211.3C2226.5 5197.6 2230.7 5185.6 2239.2 5175.2C2247.7 5164.8 2260.3 5156 2272.2 5157C2284.2 5158 2295.3 5169 2307.7 5178.1Z" fill="#003478" fill-opacity="0.14"/>
<path d="M390.2 1162.5C397.9 1174.8 399.1 1189.4 398.2 1201.2C397.2 1213 394.1 1222 395.9 1237.6C397.7 1253.2 404.4 1275.4 398.2 1285.3C392.1 1295.2 373 1292.8 354 1292.8C335 1292.8 315.9 1295.2 303.1 1287.5C290.4 1279.7 283.9 1261.8 282.3 1245.1C280.7 1228.4 283.9 1212.8 293.8 1204.7C303.7 1196.6 320.3 1196 331.4 1184.8C342.5 1173.6 348.3 1151.9 358.2 1146.1C368.2 1140.2 382.4 1150.2 390.2 1162.5Z" fill="#FFBB3D" fill-opacity="0.2"/>
<path d="M289.901 2866.5C298.301 2880.4 301.001 2894.4 308.301 2908.9C315.601 2923.4 327.501 2938.2 326.601 2951.4C325.701 2964.5 312.101 2976 297.701 2977.2C283.301 2978.4 268.101 2969.2 255.801 2965.4C243.401 2961.5 233.901 2963 221.401 2961.2C208.901 2959.4 193.401 2954.4 188.101 2944.5C182.701 2934.7 187.501 2920 191.201 2903.9C195.001 2887.8 197.801 2870.3 207.901 2856.9C218.001 2843.6 235.501 2834.4 251.401 2836.7C267.201 2839 281.401 2852.6 289.901 2866.5Z" fill="#FFBB3D" fill-opacity="0.2"/>
<path d="M2152.5 2568.6C2158.7 2576.3 2156 2593.1 2161.6 2607.8C2167.1 2622.4 2180.9 2635 2179.9 2644.1C2178.8 2653.3 2162.9 2659 2149.8 2663.2C2136.7 2667.4 2126.3 2670.2 2113.5 2673.7C2100.6 2677.2 2085.2 2681.4 2072.1 2677.2C2059 2672.9 2048.2 2660.2 2040.8 2644.7C2033.3 2629.2 2029.2 2610.8 2034 2595.1C2038.8 2579.5 2052.5 2566.5 2067.6 2561.6C2082.8 2556.8 2099.4 2560.2 2115.3 2561.2C2131.1 2562.2 2146.2 2560.9 2152.5 2568.6Z" fill="#FFBB3D" fill-opacity="0.2"/>
<path d="M1658.5 3601.6C1664.7 3609.3 1662 3626.1 1667.6 3640.8C1673.1 3655.4 1686.9 3668 1685.9 3677.1C1684.8 3686.3 1668.9 3692 1655.8 3696.2C1642.7 3700.4 1632.3 3703.2 1619.5 3706.7C1606.6 3710.2 1591.2 3714.4 1578.1 3710.2C1565 3705.9 1554.2 3693.2 1546.8 3677.7C1539.3 3662.2 1535.2 3643.8 1540 3628.1C1544.8 3612.5 1558.5 3599.5 1573.6 3594.6C1588.8 3589.8 1605.4 3593.2 1621.3 3594.2C1637.1 3595.2 1652.2 3593.9 1658.5 3601.6Z" fill="#FFBB3D" fill-opacity="0.2"/>
<path d="M2236.1 5062.8C2247.6 5069.9 2261.2 5075.3 2266.5 5084.9C2271.7 5094.5 2268.5 5108.4 2260.7 5117.2C2252.9 5126 2240.5 5129.7 2230.6 5137.6C2220.7 5145.6 2213.4 5157.8 2203.6 5161.1C2193.8 5164.5 2181.6 5158.9 2171.9 5150.9C2162.3 5142.9 2155.1 5132.4 2149.7 5120.2C2144.3 5108.1 2140.6 5094.3 2147.2 5087C2153.9 5079.8 2171 5079.1 2182.5 5072C2194.1 5064.9 2200 5051.5 2207.7 5049.2C2215.3 5046.9 2224.6 5055.7 2236.1 5062.8Z" fill="#FFBB3D" fill-opacity="0.2"/>
<path d="M2371.1 4635.8C2382.6 4642.9 2396.2 4648.3 2401.5 4657.9C2406.7 4667.5 2403.5 4681.4 2395.7 4690.2C2387.9 4699 2375.5 4702.7 2365.6 4710.6C2355.7 4718.6 2348.4 4730.8 2338.6 4734.1C2328.8 4737.5 2316.6 4731.9 2306.9 4723.9C2297.3 4715.9 2290.1 4705.4 2284.7 4693.2C2279.3 4681.1 2275.6 4667.3 2282.2 4660C2288.9 4652.8 2306 4652.1 2317.5 4645C2329.1 4637.9 2335 4624.5 2342.7 4622.2C2350.3 4619.9 2359.6 4628.7 2371.1 4635.8Z" fill="#FFBB3D" fill-opacity="0.2"/>
<path d="M1449 6053.6C1453 6060.9 1443 6083 1442.1 6098C1441.2 6113 1449.4 6120.9 1449.6 6128C1449.8 6135.1 1442.1 6141.5 1434 6152.1C1425.9 6162.8 1417.4 6177.7 1406.3 6181.4C1395.2 6185.1 1381.5 6177.4 1374.4 6166.4C1367.3 6155.5 1366.9 6141.1 1358.4 6126.7C1349.9 6112.2 1333.4 6097.6 1332.1 6083.8C1330.8 6070.1 1344.9 6057.1 1360.3 6053.5C1375.6 6050 1392.3 6055.9 1409.7 6055C1427 6054.1 1445 6046.4 1449 6053.6Z" fill="#FFBB3D" fill-opacity="0.2"/>
<path d="M881.5 6079.2C887.2 6086.2 890.2 6094 894.4 6102.5C898.5 6111 903.7 6120.1 906 6133.1C908.4 6146 907.9 6162.8 899.6 6174.9C891.3 6186.9 875.1 6194.2 864.2 6187.1C853.2 6179.9 847.5 6158.4 834 6148C820.6 6137.6 799.4 6138.4 795.9 6132.4C792.5 6126.4 806.8 6113.5 813.3 6099.7C819.9 6085.8 818.8 6070.9 825.1 6064.2C831.4 6057.4 845.2 6058.7 856.3 6062.4C867.4 6066.1 875.8 6072.2 881.5 6079.2Z" fill="#FFBB3D" fill-opacity="0.2"/>
<g clip-path="url(#clip2_275_417)">
<path d="M996.2 6696.5C1003.9 6708.8 1005.1 6723.4 1004.2 6735.2C1003.2 6747 1000.1 6756 1001.9 6771.6C1003.7 6787.2 1010.4 6809.4 1004.2 6819.3C998.1 6829.2 979 6826.8 960 6826.8C941 6826.8 921.9 6829.2 909.1 6821.5C896.4 6813.7 889.9 6795.8 888.3 6779.1C886.7 6762.4 889.9 6746.8 899.8 6738.7C909.7 6730.6 926.3 6730 937.4 6718.8C948.5 6707.6 954.3 6685.9 964.2 6680.1C974.2 6674.2 988.4 6684.2 996.2 6696.5Z" fill="#FFBB3D" fill-opacity="0.2"/>
<path d="M1061.2 6728.6C1071.7 6740.2 1080.7 6752.1 1084.8 6768.1C1088.8 6784 1087.9 6804 1077.5 6815.2C1067 6826.5 1047 6828.9 1031.3 6824.6C1015.6 6820.3 1004.2 6809.3 990.1 6798C976 6786.8 959.2 6775.4 956.3 6761.1C953.4 6746.8 964.5 6729.7 978.6 6718C992.7 6706.4 1009.8 6700.3 1024.4 6702.9C1038.9 6705.6 1050.8 6717 1061.2 6728.6Z" fill="#003478" fill-opacity="0.14"/>
</g>
<path d="M634.2 6185.9C648.2 6197.2 661 6209 667.7 6224.1C674.5 6239.2 675.2 6257.6 670.5 6274.8C665.8 6292 655.6 6308.1 641.2 6317C626.9 6325.8 608.5 6327.5 592.2 6324.5C575.9 6321.4 561.9 6313.8 547.7 6304.8C533.6 6295.9 519.4 6285.7 516.3 6272.8C513.2 6259.8 521.3 6244.1 527.5 6228.5C533.6 6212.9 537.9 6197.5 548 6184.9C558.1 6172.3 574.1 6162.5 589.6 6163.1C605.1 6163.6 620.3 6174.5 634.2 6185.9Z" fill="#FFBB3D" fill-opacity="0.2"/>
<path d="M2457.4 5496.4C2471.4 5504.4 2480.5 5521.1 2484.2 5538.2C2487.9 5555.3 2486.1 5572.9 2480.2 5588.5C2474.3 5604.1 2464.3 5617.8 2451.2 5627.3C2438.2 5636.9 2422.1 5642.4 2404.6 5644.4C2387 5646.3 2368 5644.9 2352.6 5636.1C2337.1 5627.3 2325.1 5611.2 2321.1 5593.8C2317.1 5576.4 2321.2 5557.6 2326.9 5539.1C2332.6 5520.7 2340.1 5502.6 2353.6 5494.5C2367 5486.3 2386.5 5488.1 2405.6 5488.6C2424.7 5489.1 2443.4 5488.4 2457.4 5496.4Z" fill="#FFBB3D" fill-opacity="0.2"/>
<path d="M1041.6 3371.9C1050.1 3371.5 1053.1 3386 1052.2 3398.2C1051.3 3410.3 1046.5 3420.2 1050.2 3432.1C1053.9 3444.1 1066.1 3458.2 1064.2 3465.6C1062.4 3472.9 1046.4 3473.4 1034.1 3474.7C1021.9 3476.1 1013.5 3478.2 1004.3 3479.5C995.099 3480.7 985.199 3481 979.099 3476.2C972.999 3471.3 970.599 3461.3 966.599 3452.7C962.599 3444.1 956.899 3437.1 959.199 3431.3C961.399 3425.5 971.599 3421.1 973.099 3408.1C974.599 3395.1 967.299 3373.6 971.199 3371.3C974.999 3369 989.999 3385.9 1004.5 3386.7C1019.1 3387.5 1033.1 3372.2 1041.6 3371.9Z" fill="#FFBB3D" fill-opacity="0.2"/>
<path d="M1035.1 2738.8C1046.6 2745.9 1060.2 2751.3 1065.5 2760.9C1070.7 2770.5 1067.5 2784.4 1059.7 2793.2C1051.9 2802 1039.5 2805.7 1029.6 2813.6C1019.7 2821.6 1012.4 2833.8 1002.6 2837.1C992.8 2840.5 980.6 2834.9 970.9 2826.9C961.3 2818.9 954.1 2808.4 948.7 2796.2C943.3 2784.1 939.6 2770.3 946.2 2763C952.9 2755.8 970 2755.1 981.5 2748C993.1 2740.9 999 2727.5 1006.7 2725.2C1014.3 2722.9 1023.6 2731.7 1035.1 2738.8Z" fill="#FFBB3D" fill-opacity="0.2"/>
<path d="M855.501 1898.7C866.901 1911.1 874.501 1924.5 877.601 1938.3C880.801 1952.2 879.401 1966.5 877.801 1983.5C876.101 2000.5 874.001 2020.1 863.301 2025.1C852.701 2030 833.301 2020.1 817.101 2015.8C801.001 2011.5 787.901 2012.7 773.201 2009.1C758.501 2005.5 742.201 1997.1 736.901 1984.3C731.701 1971.5 737.601 1954.3 746.701 1941.8C755.801 1929.2 768.001 1921.4 779.801 1909.2C791.501 1896.9 802.801 1880.3 815.901 1877.6C829.101 1875 844.201 1886.4 855.501 1898.7Z" fill="#003478" fill-opacity="0.14"/>
<path d="M1057.2 1047.8C1068.4 1050.5 1081.3 1056.3 1083.8 1065.3C1086.3 1074.2 1078.4 1086.1 1069.9 1093.6C1061.5 1101 1052.5 1103.8 1045.2 1107.1C1038 1110.3 1032.5 1113.8 1020.5 1122.7C1008.6 1131.6 990.201 1145.8 978.701 1143.9C967.201 1142.1 962.701 1124.2 966.601 1109.8C970.401 1095.4 982.701 1084.5 987.401 1071.4C992.001 1058.3 989.101 1043 994.401 1038.4C999.701 1033.8 1013.4 1039.9 1024.9 1042.8C1036.5 1045.6 1046 1045.2 1057.2 1047.8Z" fill="#FFBB3D" fill-opacity="0.2"/>
<path d="M334.2 702.5C341.9 714.8 343.1 729.4 342.2 741.2C341.2 753 338.1 762 339.9 777.6C341.7 793.2 348.4 815.4 342.2 825.3C336.1 835.2 317 832.8 298 832.8C279 832.8 259.9 835.2 247.1 827.5C234.4 819.7 227.9 801.8 226.3 785.1C224.7 768.4 227.9 752.8 237.8 744.7C247.7 736.6 264.3 736 275.4 724.8C286.5 713.6 292.3 691.9 302.2 686.1C312.2 680.2 326.4 690.2 334.2 702.5Z" fill="#FFBB3D" fill-opacity="0.2"/>
<path d="M638.6 2134.3C652.3 2135.4 673.3 2135.3 681.7 2143.5C690.1 2151.7 685.9 2168.2 676.3 2178.3C666.7 2188.5 651.8 2192.4 640.2 2201.1C628.6 2209.8 620.3 2223.3 611.9 2223.5C603.4 2223.7 594.8 2210.6 582.5 2202.1C570.2 2193.7 554.3 2189.8 546.8 2180.1C539.4 2170.3 540.5 2154.7 549 2145.6C557.5 2136.4 573.5 2133.6 585.2 2131.8C596.9 2130 604.5 2129.2 611.4 2130C618.4 2130.7 624.8 2133.1 638.6 2134.3Z" fill="#FFBB3D" fill-opacity="0.2"/>
<path d="M2505.9 186.9C2520.1 191.6 2529.4 208.9 2524.5 223.7C2519.5 238.5 2500.4 250.8 2493.8 266.1C2487.2 281.3 2493.2 299.4 2488.5 310.7C2483.8 322 2468.4 326.4 2451.7 328.3C2435 330.1 2416.9 329.3 2406 320.1C2395 310.8 2391.2 293.1 2392.9 278.2C2394.5 263.4 2401.6 251.5 2404.1 236.4C2406.7 221.3 2404.6 203 2412 196C2419.4 189.1 2436.2 193.5 2454.2 191.8C2472.3 190.1 2491.6 182.2 2505.9 186.9Z" fill="#FFBB3D" fill-opacity="0.2"/>
<path d="M2605 1092.6C2609 1099.9 2599 1122 2598.1 1137C2597.2 1152 2605.4 1159.9 2605.6 1167C2605.8 1174.1 2598.1 1180.5 2590 1191.1C2581.9 1201.8 2573.4 1216.7 2562.3 1220.4C2551.2 1224.1 2537.5 1216.4 2530.4 1205.4C2523.3 1194.5 2522.9 1180.1 2514.4 1165.7C2505.9 1151.2 2489.4 1136.6 2488.1 1122.8C2486.8 1109.1 2500.9 1096.1 2516.3 1092.5C2531.6 1089 2548.3 1094.9 2565.7 1094C2583 1093.1 2601 1085.4 2605 1092.6Z" fill="#FFBB3D" fill-opacity="0.2"/>
<path d="M2179.1 6412.9C2186.7 6419.3 2193.5 6425.8 2203.8 6436.2C2214.2 6446.6 2228.1 6461 2224.7 6469.1C2221.3 6477.2 2200.5 6479.2 2186 6482.5C2171.5 6485.9 2163.3 6490.7 2152.3 6494.4C2141.3 6498.1 2127.6 6500.8 2113.2 6497.4C2098.7 6494.1 2083.4 6484.6 2083.8 6473.1C2084.3 6461.6 2100.4 6448.1 2105.8 6430.9C2111.3 6413.8 2106.1 6393.1 2112.5 6386.4C2118.9 6379.7 2136.9 6386.9 2150.1 6393.6C2163.3 6400.3 2171.6 6406.5 2179.1 6412.9Z" fill="#003478" fill-opacity="0.14"/>
<path d="M445.252 2407.23C453.052 2411.53 453.452 2427.33 458.752 2441.93C463.952 2456.53 474.152 2470.03 473.052 2481.73C472.052 2493.53 459.752 2503.63 446.852 2509.23C434.052 2514.83 420.552 2515.83 406.452 2516.73C392.252 2517.73 377.352 2518.73 365.652 2512.83C353.952 2506.93 345.352 2494.03 344.152 2481.03C342.952 2467.93 349.152 2454.73 351.652 2438.23C354.152 2421.73 352.952 2401.93 361.652 2397.83C370.252 2393.83 388.752 2405.43 405.552 2407.73C422.352 2409.93 437.452 2402.83 445.252 2407.23Z" fill="#003478" fill-opacity="0.14"/>
<g clip-path="url(#clip3_275_417)">
<path d="M672.2 1336.6C683.2 1339.2 685.9 1358.4 687.2 1375.2C688.5 1391.9 688.5 1406.1 682.9 1417.1C677.4 1428.1 666.5 1435.9 655.6 1438.5C644.7 1441.1 633.8 1438.4 621.1 1441C608.4 1443.6 593.8 1451.5 583.9 1448.6C574.1 1445.6 569.1 1431.9 572 1420.4C574.8 1408.9 585.5 1399.6 590 1389C594.4 1378.3 592.5 1366.4 597 1361.8C601.4 1357.1 612.2 1359.8 627.2 1354.1C642.2 1348.3 661.3 1334.1 672.2 1336.6Z" fill="#FFBB3D" fill-opacity="0.2"/>
</g>
<path d="M688.544 874.473C699.944 886.873 707.544 900.273 710.644 914.073C713.844 927.973 712.444 942.273 710.844 959.273C709.144 976.273 707.044 995.873 696.344 1000.87C685.744 1005.77 666.344 995.873 650.144 991.573C634.044 987.273 620.944 988.473 606.244 984.873C591.544 981.273 575.244 972.873 569.944 960.073C564.744 947.273 570.644 930.073 579.744 917.573C588.844 904.973 601.044 897.173 612.844 884.973C624.544 872.673 635.844 856.073 648.944 853.373C662.144 850.773 677.244 862.173 688.544 874.473Z" fill="#003478" fill-opacity="0.14"/>
<path d="M1014.9 6336.5C1031.5 6349.8 1041.6 6372.9 1040.5 6394.8C1039.3 6416.8 1026.9 6437.6 1010.2 6452.5C993.6 6467.3 972.8 6476.2 953.7 6474.5C934.5 6472.9 917.1 6460.6 900.7 6445.8C884.3 6430.9 869 6413.5 867.6 6394.6C866.1 6375.7 878.7 6355.4 895 6342.2C911.4 6328.9 931.7 6322.6 953.4 6321.2C975.1 6319.8 998.2 6323.2 1014.9 6336.5Z" fill="#003478" fill-opacity="0.14"/>
<path d="M1126.7 445.5C1133 454.9 1124.9 474.3 1121.2 496.3C1117.5 518.3 1118.1 542.9 1107.3 550.8C1096.5 558.7 1074.2 550 1054.3 539.2C1034.5 528.5 1017 515.8 1012.7 499.4C1008.3 483 1017.1 462.8 1030.4 451.8C1043.6 440.8 1061.3 438.9 1080.5 437.7C1099.7 436.5 1120.4 436 1126.7 445.5Z" fill="#003478" fill-opacity="0.14"/>
<path d="M2049.8 3043.7C2057.8 3055.7 2066.7 3060.1 2068.9 3066.7C2071 3073.3 2066.3 3082.1 2059.7 3086.5C2053 3090.8 2044.4 3090.8 2038.8 3100.2C2033.2 3109.6 2030.6 3128.5 2027.5 3129.1C2024.5 3129.7 2021 3112.1 2012.8 3103.5C2004.6 3095 1991.8 3095.4 1986.1 3090.6C1980.4 3085.8 1981.9 3075.6 1980.3 3059.6C1978.8 3043.6 1974.2 3021.6 1981.6 3009.4C1989.1 2997.1 2008.5 2994.6 2021.7 3003.2C2034.9 3011.8 2041.9 3031.6 2049.8 3043.7Z" fill="#003478" fill-opacity="0.14"/>
<g clip-path="url(#clip4_275_417)">
<path d="M1435.6 1831.3C1449.3 1832.4 1470.3 1832.3 1478.7 1840.5C1487.1 1848.7 1482.9 1865.2 1473.3 1875.3C1463.7 1885.5 1448.8 1889.4 1437.2 1898.1C1425.6 1906.8 1417.3 1920.3 1408.9 1920.5C1400.4 1920.7 1391.8 1907.6 1379.5 1899.1C1367.2 1890.7 1351.3 1886.8 1343.8 1877.1C1336.4 1867.3 1337.5 1851.7 1346 1842.6C1354.5 1833.4 1370.5 1830.6 1382.2 1828.8C1393.9 1827 1401.5 1826.2 1408.4 1827C1415.4 1827.7 1421.8 1830.1 1435.6 1831.3Z" fill="#FFBB3D" fill-opacity="0.2"/>
</g>
<path d="M1338.2 2394.8C1349.4 2397.5 1362.3 2403.3 1364.8 2412.3C1367.3 2421.2 1359.4 2433.1 1350.9 2440.6C1342.5 2448 1333.5 2450.8 1326.2 2454.1C1319 2457.3 1313.5 2460.8 1301.5 2469.7C1289.6 2478.6 1271.2 2492.8 1259.7 2490.9C1248.2 2489.1 1243.7 2471.2 1247.6 2456.8C1251.4 2442.4 1263.7 2431.5 1268.4 2418.4C1273 2405.3 1270.1 2390 1275.4 2385.4C1280.7 2380.8 1294.4 2386.9 1305.9 2389.8C1317.5 2392.6 1327 2392.2 1338.2 2394.8Z" fill="#FFBB3D" fill-opacity="0.2"/>
<path d="M1496.14 1592.44C1502.44 1601.84 1494.34 1621.24 1490.64 1643.24C1486.94 1665.24 1487.54 1689.84 1476.74 1697.74C1465.94 1705.64 1443.64 1696.94 1423.74 1686.14C1403.94 1675.44 1386.44 1662.74 1382.14 1646.34C1377.74 1629.94 1386.54 1609.74 1399.84 1598.74C1413.04 1587.74 1430.74 1585.84 1449.94 1584.64C1469.14 1583.44 1489.84 1582.94 1496.14 1592.44Z" fill="#003478" fill-opacity="0.14"/>
<path d="M2217.1 399.9C2224.7 406.3 2231.5 412.8 2241.8 423.2C2252.2 433.6 2266.1 448 2262.7 456.1C2259.3 464.2 2238.5 466.2 2224 469.5C2209.5 472.9 2201.3 477.7 2190.3 481.4C2179.3 485.1 2165.6 487.8 2151.2 484.4C2136.7 481.1 2121.4 471.6 2121.8 460.1C2122.3 448.6 2138.4 435.1 2143.8 417.9C2149.3 400.8 2144.1 380.1 2150.5 373.4C2156.9 366.7 2174.9 373.9 2188.1 380.6C2201.3 387.3 2209.6 393.5 2217.1 399.9Z" fill="#003478" fill-opacity="0.14"/>
<path d="M1543.2 2234.6C1553.7 2246.2 1562.7 2258.1 1566.8 2274.1C1570.8 2290 1569.9 2310 1559.5 2321.2C1549 2332.5 1529 2334.9 1513.3 2330.6C1497.6 2326.3 1486.2 2315.3 1472.1 2304C1458 2292.8 1441.2 2281.4 1438.3 2267.1C1435.4 2252.8 1446.5 2235.7 1460.6 2224C1474.7 2212.4 1491.8 2206.3 1506.4 2208.9C1520.9 2211.6 1532.8 2223 1543.2 2234.6Z" fill="#003478" fill-opacity="0.14"/>
<path d="M837.9 5336.5C854.5 5349.8 864.6 5372.9 863.5 5394.8C862.3 5416.8 849.9 5437.6 833.2 5452.5C816.6 5467.3 795.8 5476.2 776.7 5474.5C757.5 5472.9 740.1 5460.6 723.7 5445.8C707.3 5430.9 692 5413.5 690.6 5394.6C689.1 5375.7 701.7 5355.4 718 5342.2C734.4 5328.9 754.7 5322.6 776.4 5321.2C798.1 5319.8 821.2 5323.2 837.9 5336.5Z" fill="#003478" fill-opacity="0.14"/>
<g clip-path="url(#clip5_275_417)">
<path d="M847.2 3829.6C857.7 3841.2 866.699 3853.1 870.799 3869.1C874.799 3885 873.9 3905 863.5 3916.2C853 3927.5 833 3929.9 817.3 3925.6C801.6 3921.3 790.2 3910.3 776.1 3899C762 3887.8 745.2 3876.4 742.3 3862.1C739.4 3847.8 750.5 3830.7 764.6 3819C778.7 3807.4 795.8 3801.3 810.4 3803.9C824.9 3806.6 836.8 3818 847.2 3829.6Z" fill="#003478" fill-opacity="0.14"/>
<path d="M908.299 3922.3C914.899 3924.4 923.899 3924.2 933.099 3927.9C942.299 3931.6 951.599 3939.3 950.399 3946.3C949.299 3953.4 937.699 3959.7 930.199 3966.4C922.799 3973.1 919.499 3980.2 913.999 3987.3C908.499 3994.4 900.699 4001.6 893.999 3999.9C887.299 3998.2 881.499 3987.5 869.499 3984.1C857.499 3980.8 839.199 3984.7 835.899 3979.7C832.499 3974.7 843.999 3960.9 852.299 3951.8C860.499 3942.7 865.499 3938.3 868.699 3933.1C871.899 3927.8 873.299 3921.6 877.099 3917.7C880.799 3913.9 886.899 3912.6 892.099 3914.1C897.299 3915.7 901.599 3920.2 908.299 3922.3Z" fill="#FFBB3D" fill-opacity="0.2"/>
</g>
<path d="M1317.2 3186.6C1321.1 3199.3 1315.3 3218.3 1320.7 3230.1C1326 3241.9 1342.5 3246.5 1347.2 3253.7C1351.9 3260.9 1344.8 3270.9 1337.4 3279.2C1330 3287.5 1322.4 3294.1 1313.8 3295.5C1305.1 3296.9 1295.6 3293.1 1282.6 3299C1269.6 3305 1253.1 3320.7 1249.1 3316.7C1245.1 3312.6 1253.6 3288.7 1257.4 3274.5C1261.2 3260.2 1260.3 3255.6 1250.9 3245.6C1241.5 3235.5 1223.5 3220 1223.8 3212.9C1224.1 3205.7 1242.6 3206.7 1256 3199.5C1269.4 3192.2 1277.7 3176.6 1288.7 3172C1299.6 3167.4 1313.2 3173.8 1317.2 3186.6Z" fill="#FFBB3D" fill-opacity="0.2"/>
<path d="M1025.3 5858.4C1033.8 5863.2 1039.5 5873.2 1047.8 5885.6C1056 5897.9 1066.7 5912.5 1065.7 5925.7C1064.7 5938.9 1052 5950.6 1038.1 5961.5C1024.2 5972.5 1009.1 5982.5 993.799 5982.8C978.599 5983 963.199 5973.3 947.799 5962.9C932.499 5952.4 917.299 5941.1 917.699 5928.2C918.199 5915.2 934.299 5900.5 945.699 5890.1C956.999 5879.6 963.499 5873.3 970.799 5868.1C977.999 5863 985.999 5858.9 995.699 5856.6C1005.4 5854.3 1016.7 5853.7 1025.3 5858.4Z" fill="#003478" fill-opacity="0.14"/>
<path d="M505.3 5485.5C519 5495.8 533.6 5504.6 538.7 5517.1C543.8 5529.7 539.5 5546.1 531.6 5558.6C523.8 5571.1 512.5 5579.7 500.9 5587.7C489.4 5595.6 477.7 5602.8 462.2 5608C446.7 5613.2 427.4 5616.4 419 5607.5C410.6 5598.6 413.1 5577.5 413.6 5561.2C414.2 5545 412.7 5533.6 412.8 5519.4C412.9 5505.2 414.4 5488.1 423.5 5476.3C432.6 5464.5 449.3 5458 464.1 5460.7C478.8 5463.3 491.6 5475.2 505.3 5485.5Z" fill="#003478" fill-opacity="0.14"/>
<path d="M2683.2 3525.6C2693.7 3537.2 2702.7 3549.1 2706.8 3565.1C2710.8 3581 2709.9 3601 2699.5 3612.2C2689 3623.5 2669 3625.9 2653.3 3621.6C2637.6 3617.3 2626.2 3606.3 2612.1 3595C2598 3583.8 2581.2 3572.4 2578.3 3558.1C2575.4 3543.8 2586.5 3526.7 2600.6 3515C2614.7 3503.4 2631.8 3497.3 2646.4 3499.9C2660.9 3502.6 2672.8 3514 2683.2 3525.6Z" fill="#003478" fill-opacity="0.14"/>
<path d="M2644.8 6689.7C2652.8 6701.7 2661.7 6706.1 2663.9 6712.7C2666 6719.3 2661.3 6728.1 2654.7 6732.5C2648 6736.8 2639.4 6736.8 2633.8 6746.2C2628.2 6755.6 2625.6 6774.5 2622.5 6775.1C2619.5 6775.7 2616 6758.1 2607.8 6749.5C2599.6 6741 2586.8 6741.4 2581.1 6736.6C2575.4 6731.8 2576.9 6721.6 2575.3 6705.6C2573.8 6689.6 2569.2 6667.6 2576.6 6655.4C2584.1 6643.1 2603.5 6640.6 2616.7 6649.2C2629.9 6657.8 2636.9 6677.6 2644.8 6689.7Z" fill="#003478" fill-opacity="0.14"/>
<path d="M328.2 6424.6C338.7 6436.2 347.699 6448.1 351.799 6464.1C355.799 6480 354.9 6500 344.5 6511.2C334 6522.5 314 6524.9 298.3 6520.6C282.6 6516.3 271.2 6505.3 257.1 6494C243 6482.8 226.2 6471.4 223.3 6457.1C220.4 6442.8 231.5 6425.7 245.6 6414C259.7 6402.4 276.8 6396.3 291.4 6398.9C305.9 6401.6 317.8 6413 328.2 6424.6Z" fill="#003478" fill-opacity="0.14"/>
<path d="M442.2 3424.6C452.7 3436.2 461.699 3448.1 465.799 3464.1C469.799 3480 468.9 3500 458.5 3511.2C448 3522.5 428 3524.9 412.3 3520.6C396.6 3516.3 385.2 3505.3 371.1 3494C357 3482.8 340.2 3471.4 337.3 3457.1C334.4 3442.8 345.5 3425.7 359.6 3414C373.7 3402.4 390.8 3396.3 405.4 3398.9C419.9 3401.6 431.8 3413 442.2 3424.6Z" fill="#003478" fill-opacity="0.14"/>
<path d="M583.292 2911.58C591.292 2923.58 600.192 2927.98 602.392 2934.58C604.492 2941.18 599.792 2949.98 593.192 2954.38C586.492 2958.68 577.892 2958.68 572.292 2968.08C566.692 2977.48 564.092 2996.38 560.992 2996.98C557.992 2997.58 554.492 2979.98 546.292 2971.38C538.092 2962.88 525.292 2963.28 519.592 2958.48C513.892 2953.68 515.392 2943.48 513.792 2927.48C512.292 2911.48 507.692 2889.48 515.092 2877.28C522.592 2864.98 541.992 2862.48 555.192 2871.08C568.392 2879.68 575.392 2899.48 583.292 2911.58Z" fill="#003478" fill-opacity="0.14"/>
<path d="M520.101 1602.9C527.701 1609.3 534.501 1615.8 544.801 1626.2C555.201 1636.6 569.101 1651 565.701 1659.1C562.301 1667.2 541.501 1669.2 527.001 1672.5C512.501 1675.9 504.301 1680.7 493.301 1684.4C482.301 1688.1 468.601 1690.8 454.201 1687.4C439.701 1684.1 424.401 1674.6 424.801 1663.1C425.301 1651.6 441.401 1638.1 446.801 1620.9C452.301 1603.8 447.101 1583.1 453.501 1576.4C459.901 1569.7 477.901 1576.9 491.101 1583.6C504.301 1590.3 512.601 1596.5 520.101 1602.9Z" fill="#003478" fill-opacity="0.14"/>
<path d="M2036.5 1835.1C2049.6 1840.5 2065.6 1846 2070.4 1856.2C2075.3 1866.4 2068.9 1881.4 2064.7 1897.9C2060.5 1914.4 2058.4 1932.4 2048.5 1937C2038.6 1941.7 2020.8 1932.9 2006.6 1927.9C1992.5 1922.8 1982 1921.6 1974.5 1916.2C1966.9 1910.8 1962.3 1901.2 1959.8 1891.5C1957.3 1881.8 1956.9 1871.8 1956.4 1858.3C1955.8 1844.7 1955.2 1827.5 1962.9 1820.4C1970.7 1813.3 1986.8 1816.4 2000 1820.5C2013.2 1824.6 2023.4 1829.8 2036.5 1835.1Z" fill="#003478" fill-opacity="0.14"/>
<path d="M2479.7 2940.8C2491.5 2953.1 2504.1 2960.6 2513.4 2972.9C2522.7 2985.3 2528.6 3002.5 2525.9 3018.9C2523.3 3035.3 2512.1 3050.9 2497.3 3056.2C2482.6 3061.6 2464.3 3056.6 2446 3056.6C2427.7 3056.5 2409.4 3061.5 2401.4 3054C2393.4 3046.5 2395.7 3026.6 2392.1 3009.9C2388.6 2993.2 2379.3 2979.7 2381.1 2968.6C2382.9 2957.4 2395.8 2948.6 2408.5 2936.5C2421.2 2924.4 2433.6 2909.1 2445.3 2910.1C2457 2911 2467.9 2928.4 2479.7 2940.8Z" fill="#003478" fill-opacity="0.14"/>
<path d="M1714.5 1882.41C1728.2 1892.71 1742.8 1901.51 1747.9 1914.01C1753 1926.61 1748.7 1943.01 1740.8 1955.51C1733 1968.01 1721.7 1976.61 1710.1 1984.61C1698.6 1992.51 1686.9 1999.71 1671.4 2004.91C1655.9 2010.11 1636.6 2013.31 1628.2 2004.41C1619.8 1995.51 1622.3 1974.41 1622.8 1958.11C1623.4 1941.91 1621.9 1930.51 1622 1916.31C1622.1 1902.11 1623.6 1885.01 1632.7 1873.21C1641.8 1861.41 1658.5 1854.91 1673.3 1857.61C1688 1860.21 1700.8 1872.11 1714.5 1882.41Z" fill="#003478" fill-opacity="0.14"/>
<path d="M1193.6 2596C1205.1 2608.8 1220.7 2611.7 1225 2619.5C1229.4 2627.3 1222.5 2640 1216.8 2651.9C1211.2 2663.7 1206.8 2674.7 1198.7 2684.1C1190.6 2693.4 1178.8 2701.2 1165.4 2703.3C1152.1 2705.5 1137.1 2702.1 1124.4 2694.2C1111.7 2686.4 1101.1 2674.1 1096.7 2659.9C1092.2 2645.8 1093.8 2629.8 1100.2 2616.9C1106.6 2604.1 1117.8 2594.4 1129.8 2581.8C1141.7 2569.1 1154.3 2553.4 1164.4 2557C1174.5 2560.5 1182 2583.3 1193.6 2596Z" fill="#003478" fill-opacity="0.14"/>
<path d="M1115.5 1954.6C1128.9 1959.7 1142.4 1967.5 1146.3 1979.2C1150.2 1990.9 1144.6 2006.4 1141 2019.9C1137.5 2033.4 1135.9 2044.8 1132.4 2057.4C1129 2069.9 1123.7 2083.6 1113.9 2088.5C1104 2093.4 1089.5 2089.6 1075.8 2088.2C1062.2 2086.7 1049.4 2087.6 1041.4 2081.6C1033.5 2075.5 1030.5 2062.5 1025.7 2051.4C1020.9 2040.3 1014.4 2031.2 1011.3 2020.2C1008.2 2009.2 1008.4 1996.4 1012 1983.4C1015.7 1970.5 1022.9 1957.3 1034 1950.9C1045 1944.5 1060 1944.8 1074.3 1946C1088.5 1947.3 1102 1949.6 1115.5 1954.6Z" fill="#003478" fill-opacity="0.14"/>
<path d="M1438 2871.3C1450.9 2880.5 1464 2887.5 1473.5 2898.4C1483.1 2909.3 1489.1 2924.2 1488.2 2938.5C1487.2 2952.8 1479.4 2966.6 1469.1 2976.2C1458.8 2985.8 1446.1 2991.3 1434.1 2998.8C1422.2 3006.3 1411.1 3015.8 1399.6 3016.6C1388.1 3017.3 1376.1 3009.2 1361.7 3003.1C1347.3 2997 1330.5 2992.9 1323.6 2982.6C1316.7 2972.2 1319.7 2955.6 1323.1 2941C1326.6 2926.4 1330.5 2913.7 1337.9 2904.3C1345.3 2894.8 1356.2 2888.4 1367.1 2878.1C1378.1 2867.7 1389 2853.4 1400.8 2852C1412.6 2850.5 1425.2 2862 1438 2871.3Z" fill="#003478" fill-opacity="0.14"/>
<path d="M1380.57 4948.43C1393.47 4957.63 1406.57 4964.63 1416.07 4975.53C1425.67 4986.43 1431.67 5001.33 1430.77 5015.63C1429.77 5029.93 1421.97 5043.73 1411.67 5053.33C1401.37 5062.93 1388.67 5068.43 1376.67 5075.93C1364.77 5083.43 1353.67 5092.93 1342.17 5093.73C1330.67 5094.43 1318.67 5086.33 1304.27 5080.23C1289.87 5074.13 1273.07 5070.03 1266.17 5059.73C1259.27 5049.33 1262.27 5032.73 1265.67 5018.13C1269.17 5003.53 1273.07 4990.83 1280.47 4981.43C1287.87 4971.93 1298.77 4965.53 1309.67 4955.23C1320.67 4944.83 1331.57 4930.53 1343.37 4929.13C1355.17 4927.63 1367.77 4939.13 1380.57 4948.43Z" fill="#003478" fill-opacity="0.14"/>
<path d="M857.8 4869.1C863 4886.6 856.6 4902.3 848.2 4913.7C839.8 4925.1 829.4 4932.1 818.6 4932.3C807.7 4932.6 796.5 4926 786 4913.4C775.4 4900.9 765.7 4882.2 771.3 4864.4C776.9 4846.6 798 4829.6 816.9 4830.8C835.8 4832 852.6 4851.5 857.8 4869.1Z" fill="#003478" fill-opacity="0.14"/>
<path d="M1583.1 5458.8C1594.6 5465.9 1608.2 5471.3 1613.5 5480.9C1618.7 5490.5 1615.5 5504.4 1607.7 5513.2C1599.9 5522 1587.5 5525.7 1577.6 5533.6C1567.7 5541.6 1560.4 5553.8 1550.6 5557.1C1540.8 5560.5 1528.6 5554.9 1518.9 5546.9C1509.3 5538.9 1502.1 5528.4 1496.7 5516.2C1491.3 5504.1 1487.6 5490.3 1494.2 5483C1500.9 5475.8 1518 5475.1 1529.5 5468C1541.1 5460.9 1547 5447.5 1554.7 5445.2C1562.3 5442.9 1571.6 5451.7 1583.1 5458.8Z" fill="#FFBB3D" fill-opacity="0.2"/>
<path d="M249.499 5369.6C255.699 5377.3 252.999 5394.1 258.599 5408.8C264.099 5423.4 277.899 5436 276.899 5445.1C275.799 5454.3 259.899 5460 246.799 5464.2C233.699 5468.4 223.299 5471.2 210.499 5474.7C197.599 5478.2 182.199 5482.4 169.099 5478.2C155.999 5473.9 145.199 5461.2 137.799 5445.7C130.299 5430.2 126.199 5411.8 130.999 5396.1C135.799 5380.5 149.499 5367.5 164.599 5362.6C179.799 5357.8 196.399 5361.2 212.299 5362.2C228.099 5363.2 243.199 5361.9 249.499 5369.6Z" fill="#FFBB3D" fill-opacity="0.2"/>
<path d="M1122.5 5109.6C1128.7 5117.3 1126 5134.1 1131.6 5148.8C1137.1 5163.4 1150.9 5176 1149.9 5185.1C1148.8 5194.3 1132.9 5200 1119.8 5204.2C1106.7 5208.4 1096.3 5211.2 1083.5 5214.7C1070.6 5218.2 1055.2 5222.4 1042.1 5218.2C1029 5213.9 1018.2 5201.2 1010.8 5185.7C1003.3 5170.2 999.199 5151.8 1004 5136.1C1008.8 5120.5 1022.5 5107.5 1037.6 5102.6C1052.8 5097.8 1069.4 5101.2 1085.3 5102.2C1101.1 5103.2 1116.2 5101.9 1122.5 5109.6Z" fill="#FFBB3D" fill-opacity="0.2"/>
<path d="M1720.2 4632.5C1727.9 4644.8 1729.1 4659.4 1728.2 4671.2C1727.2 4683 1724.1 4692 1725.9 4707.6C1727.7 4723.2 1734.4 4745.4 1728.2 4755.3C1722.1 4765.2 1703 4762.8 1684 4762.8C1665 4762.8 1645.9 4765.2 1633.1 4757.5C1620.4 4749.7 1613.9 4731.8 1612.3 4715.1C1610.7 4698.4 1613.9 4682.8 1623.8 4674.7C1633.7 4666.6 1650.3 4666 1661.4 4654.8C1672.5 4643.6 1678.3 4621.9 1688.2 4616.1C1698.2 4610.2 1712.4 4620.2 1720.2 4632.5Z" fill="#FFBB3D" fill-opacity="0.2"/>
<path d="M1027.2 4150.5C1034.9 4162.8 1036.1 4177.4 1035.2 4189.2C1034.2 4201 1031.1 4210 1032.9 4225.6C1034.7 4241.2 1041.4 4263.4 1035.2 4273.3C1029.1 4283.2 1010 4280.8 991 4280.8C972 4280.8 952.9 4283.2 940.1 4275.5C927.4 4267.7 920.9 4249.8 919.3 4233.1C917.7 4216.4 920.9 4200.8 930.8 4192.7C940.7 4184.6 957.3 4184 968.4 4172.8C979.5 4161.6 985.3 4139.9 995.2 4134.1C1005.2 4128.2 1019.4 4138.2 1027.2 4150.5Z" fill="#FFBB3D" fill-opacity="0.2"/>
<path d="M2524 5929.6C2528 5936.9 2518 5959 2517.1 5974C2516.2 5989 2524.4 5996.9 2524.6 6004C2524.8 6011.1 2517.1 6017.5 2509 6028.1C2500.9 6038.8 2492.4 6053.7 2481.3 6057.4C2470.2 6061.1 2456.5 6053.4 2449.4 6042.4C2442.3 6031.5 2441.9 6017.1 2433.4 6002.7C2424.9 5988.2 2408.4 5973.6 2407.1 5959.8C2405.8 5946.1 2419.9 5933.1 2435.3 5929.5C2450.6 5926 2467.3 5931.9 2484.7 5931C2502 5930.1 2520 5922.4 2524 5929.6Z" fill="#FFBB3D" fill-opacity="0.2"/>
<path d="M1422.1 6592.9C1433.3 6605.7 1450.3 6605.9 1462.6 6614.6C1474.9 6623.2 1482.6 6640.3 1475 6648.8C1467.3 6657.4 1444.4 6657.5 1429.4 6668.1C1414.4 6678.7 1407.2 6699.7 1400.6 6698.8C1394.1 6697.9 1388.2 6675.1 1372.8 6664.7C1357.4 6654.2 1332.4 6656.2 1324.6 6648.6C1316.8 6641.1 1326.3 6624.1 1333 6607.1C1339.7 6590.2 1343.8 6573.2 1354.5 6560.2C1365.3 6547.2 1382.6 6538 1394 6546.2C1405.4 6554.5 1410.9 6580 1422.1 6592.9Z" fill="#FFBB3D" fill-opacity="0.2"/>
<path d="M425.9 5818.9C440.1 5823.6 449.4 5840.9 444.5 5855.7C439.5 5870.5 420.4 5882.8 413.8 5898.1C407.2 5913.3 413.2 5931.4 408.5 5942.7C403.8 5954 388.4 5958.4 371.7 5960.3C355 5962.1 336.9 5961.3 326 5952.1C315 5942.8 311.2 5925.1 312.9 5910.2C314.5 5895.4 321.6 5883.5 324.1 5868.4C326.7 5853.3 324.6 5835 332 5828C339.4 5821.1 356.2 5825.5 374.2 5823.8C392.3 5822.1 411.6 5814.2 425.9 5818.9Z" fill="#FFBB3D" fill-opacity="0.2"/>
<path d="M2203.5 4089.2C2209.2 4096.2 2212.2 4104 2216.4 4112.5C2220.5 4121 2225.7 4130.1 2228 4143.1C2230.4 4156 2229.9 4172.8 2221.6 4184.9C2213.3 4196.9 2197.1 4204.2 2186.2 4197.1C2175.2 4189.9 2169.5 4168.4 2156 4158C2142.6 4147.6 2121.4 4148.4 2117.9 4142.4C2114.5 4136.4 2128.8 4123.5 2135.3 4109.7C2141.9 4095.8 2140.8 4080.9 2147.1 4074.2C2153.4 4067.4 2167.2 4068.7 2178.3 4072.4C2189.4 4076.1 2197.8 4082.2 2203.5 4089.2Z" fill="#FFBB3D" fill-opacity="0.2"/>
<path d="M464.901 3859.5C473.301 3873.4 476.001 3887.4 483.301 3901.9C490.601 3916.4 502.501 3931.2 501.601 3944.4C500.701 3957.5 487.101 3969 472.701 3970.2C458.301 3971.4 443.101 3962.2 430.801 3958.4C418.401 3954.5 408.901 3956 396.401 3954.2C383.901 3952.4 368.401 3947.4 363.101 3937.5C357.701 3927.7 362.501 3913 366.201 3896.9C370.001 3880.8 372.801 3863.3 382.901 3849.9C393.001 3836.6 410.501 3827.4 426.401 3829.7C442.201 3832 456.401 3845.6 464.901 3859.5Z" fill="#FFBB3D" fill-opacity="0.2"/>
<path d="M1046.2 3118.8C1057.4 3121.5 1070.3 3127.3 1072.8 3136.3C1075.3 3145.2 1067.4 3157.1 1058.9 3164.6C1050.5 3172 1041.5 3174.8 1034.2 3178.1C1027 3181.3 1021.5 3184.8 1009.5 3193.7C997.601 3202.6 979.201 3216.8 967.701 3214.9C956.201 3213.1 951.701 3195.2 955.601 3180.8C959.401 3166.4 971.701 3155.5 976.401 3142.4C981.001 3129.3 978.101 3114 983.401 3109.4C988.701 3104.8 1002.4 3110.9 1013.9 3113.8C1025.5 3116.6 1035 3116.2 1046.2 3118.8Z" fill="#FFBB3D" fill-opacity="0.2"/>
<path d="M1196.6 2963.8C1208.8 2967.4 1227.5 2967.3 1238 2975.6C1248.6 2983.9 1251.1 3000.5 1247.6 3016.5C1244.1 3032.4 1234.7 3047.6 1221.2 3059.5C1207.8 3071.4 1190.4 3080 1174.1 3078.5C1157.8 3077 1142.5 3065.5 1128.1 3053.9C1113.7 3042.3 1100.1 3030.7 1101 3018.1C1101.9 3005.4 1117.4 2991.7 1126.4 2979.6C1135.5 2967.5 1138.1 2957.1 1144.8 2951.7C1151.5 2946.4 1162.3 2946.2 1170.5 2949.6C1178.7 2953.1 1184.4 2960.2 1196.6 2963.8Z" fill="#003478" fill-opacity="0.14"/>
<path d="M1209.2 3612.1C1219.8 3628.6 1217 3654.5 1205 3669.9C1193.1 3685.2 1172.1 3689.9 1156 3687C1139.9 3684.1 1128.8 3673.7 1115.7 3657.7C1102.7 3641.8 1087.7 3620.3 1093.3 3606.6C1098.8 3592.9 1124.9 3587 1149.9 3587.7C1174.9 3588.3 1198.7 3595.5 1209.2 3612.1Z" fill="#003478" fill-opacity="0.14"/>
<path d="M1467.5 222.6C1473.7 230.3 1471 247.1 1476.6 261.8C1482.1 276.4 1495.9 289 1494.9 298.1C1493.8 307.3 1477.9 313 1464.8 317.2C1451.7 321.4 1441.3 324.2 1428.5 327.7C1415.6 331.2 1400.2 335.4 1387.1 331.2C1374 326.9 1363.2 314.2 1355.8 298.7C1348.3 283.2 1344.2 264.8 1349 249.1C1353.8 233.5 1367.5 220.5 1382.6 215.6C1397.8 210.8 1414.4 214.2 1430.3 215.2C1446.1 216.2 1461.2 214.9 1467.5 222.6Z" fill="#FFBB3D" fill-opacity="0.2"/>
<path d="M219.901 1659.8C235.201 1661 250.601 1672.1 253.401 1686C256.301 1699.9 246.601 1716.7 237.801 1730.8C229.101 1744.8 221.401 1756.3 211.001 1759C200.501 1761.7 187.201 1755.7 172.501 1757.8C157.701 1759.9 141.401 1770.1 135.001 1766.1C128.501 1762 131.901 1743.8 127.901 1728.7C123.901 1713.5 112.501 1701.4 109.301 1686C106.101 1670.5 110.901 1651.7 123.101 1649.5C135.201 1647.3 154.601 1661.6 171.901 1664.4C189.301 1667.3 204.501 1658.6 219.901 1659.8Z" fill="#FFBB3D" fill-opacity="0.2"/>
<path d="M2591.6 2471.3C2605.3 2472.4 2626.3 2472.3 2634.7 2480.5C2643.1 2488.7 2638.9 2505.2 2629.3 2515.3C2619.7 2525.5 2604.8 2529.4 2593.2 2538.1C2581.6 2546.8 2573.3 2560.3 2564.9 2560.5C2556.4 2560.7 2547.8 2547.6 2535.5 2539.1C2523.2 2530.7 2507.3 2526.8 2499.8 2517.1C2492.4 2507.3 2493.5 2491.7 2502 2482.6C2510.5 2473.4 2526.5 2470.6 2538.2 2468.8C2549.9 2467 2557.5 2466.2 2564.4 2467C2571.4 2467.7 2577.8 2470.1 2591.6 2471.3Z" fill="#FFBB3D" fill-opacity="0.2"/>
<path d="M2534.7 2043.5C2541 2052.9 2532.9 2072.3 2529.2 2094.3C2525.5 2116.3 2526.1 2140.9 2515.3 2148.8C2504.5 2156.7 2482.2 2148 2462.3 2137.2C2442.5 2126.5 2425 2113.8 2420.7 2097.4C2416.3 2081 2425.1 2060.8 2438.4 2049.8C2451.6 2038.8 2469.3 2036.9 2488.5 2035.7C2507.7 2034.5 2528.4 2034 2534.7 2043.5Z" fill="#003478" fill-opacity="0.14"/>
<g clip-path="url(#clip6_275_417)">
<path d="M2555.1 4372.9C2562.7 4379.3 2569.5 4385.8 2579.8 4396.2C2590.2 4406.6 2604.1 4421 2600.7 4429.1C2597.3 4437.2 2576.5 4439.2 2562 4442.5C2547.5 4445.9 2539.3 4450.7 2528.3 4454.4C2517.3 4458.1 2503.6 4460.8 2489.2 4457.4C2474.7 4454.1 2459.4 4444.6 2459.8 4433.1C2460.3 4421.6 2476.4 4408.1 2481.8 4390.9C2487.3 4373.8 2482.1 4353.1 2488.5 4346.4C2494.9 4339.7 2512.9 4346.9 2526.1 4353.6C2539.3 4360.3 2547.6 4366.5 2555.1 4372.9Z" fill="#003478" fill-opacity="0.14"/>
<path d="M2531.7 4446C2541.9 4449.2 2544.2 4467.6 2548.7 4484.6C2553.3 4501.6 2560.2 4517.1 2556.5 4529.4C2552.8 4541.8 2538.5 4550.9 2524.8 4560.6C2511.2 4570.3 2498.1 4580.5 2483.4 4582.7C2468.7 4584.9 2452.5 4579.1 2441.8 4568.4C2431.1 4557.7 2426 4542.3 2425.4 4528.2C2424.8 4514.2 2428.7 4501.6 2432.5 4488.6C2436.3 4475.7 2440 4462.4 2448.7 4458.7C2457.4 4455.1 2471.2 4461 2487.2 4458C2503.2 4454.9 2521.4 4442.8 2531.7 4446Z" fill="#FFBB3D" fill-opacity="0.2"/>
</g>
<path d="M2606.2 5734.5C2613.9 5746.8 2615.1 5761.4 2614.2 5773.2C2613.2 5785 2610.1 5794 2611.9 5809.6C2613.7 5825.2 2620.4 5847.4 2614.2 5857.3C2608.1 5867.2 2589 5864.8 2570 5864.8C2551 5864.8 2531.9 5867.2 2519.1 5859.5C2506.4 5851.7 2499.9 5833.8 2498.3 5817.1C2496.7 5800.4 2499.9 5784.8 2509.8 5776.7C2519.7 5768.6 2536.3 5768 2547.4 5756.8C2558.5 5745.6 2564.3 5723.9 2574.2 5718.1C2584.2 5712.2 2598.4 5722.2 2606.2 5734.5Z" fill="#FFBB3D" fill-opacity="0.2"/>
<path d="M2329.1 2066.8C2340.6 2073.9 2354.2 2079.3 2359.5 2088.9C2364.7 2098.5 2361.5 2112.4 2353.7 2121.2C2345.9 2130 2333.5 2133.7 2323.6 2141.6C2313.7 2149.6 2306.4 2161.8 2296.6 2165.1C2286.8 2168.5 2274.6 2162.9 2264.9 2154.9C2255.3 2146.9 2248.1 2136.4 2242.7 2124.2C2237.3 2112.1 2233.6 2098.3 2240.2 2091C2246.9 2083.8 2264 2083.1 2275.5 2076C2287.1 2068.9 2293 2055.5 2300.7 2053.2C2308.3 2050.9 2317.6 2059.7 2329.1 2066.8Z" fill="#FFBB3D" fill-opacity="0.2"/>
<path d="M2683.5 6186.7C2689.6 6196.9 2676.5 6218.5 2663.9 6237.3C2651.3 6256 2639.1 6272 2626.2 6272.5C2613.3 6273 2599.5 6257.9 2588.4 6239.9C2577.2 6222 2568.6 6201.1 2575.5 6190.4C2582.3 6179.7 2604.7 6179.2 2628.4 6178.3C2652.2 6177.5 2677.4 6176.4 2683.5 6186.7Z" fill="#003478" fill-opacity="0.14"/>
<path d="M1163.38 23.624C1174.15 31.3072 1182.3 40.1786 1184.41 49.6836C1186.52 59.1095 1182.6 69.0898 1178.17 78.674C1173.75 88.2583 1168.92 97.5257 1160.16 104.892C1151.31 112.259 1138.73 117.803 1123.64 120.496C1108.55 123.11 1090.94 122.872 1082.89 115.268C1074.84 107.744 1076.25 92.8524 1069.1 79.3077C1061.96 65.763 1046.36 53.4856 1049.38 45.8816C1052.3 38.3568 1073.93 35.4261 1089.83 29.0894C1105.73 22.7527 1115.89 13.01 1127.66 11.2674C1139.33 9.60401 1152.72 15.9407 1163.38 23.624Z" fill="#003478" fill-opacity="0.14"/>
<path d="M2212.7 95.9002C2219.5 103.9 2222.8 113.8 2232.3 125.7C2241.8 137.7 2257.6 151.7 2257.8 163.7C2258.1 175.7 2242.9 185.7 2228.2 196.1C2213.5 206.4 2199.2 217 2188.2 212.6C2177.2 208.2 2169.3 188.8 2153.9 178.7C2138.6 168.6 2115.6 167.8 2109.7 159.2C2103.8 150.6 2115 134.3 2125.8 122.9C2136.6 111.6 2147 105.3 2156.8 98.2002C2166.6 91.2002 2175.8 83.4002 2185.6 82.5002C2195.4 81.7002 2205.8 87.8002 2212.7 95.9002Z" fill="#003478" fill-opacity="0.14"/>
<path d="M1632.55 7.13565C1638.75 12.9173 1636.05 25.532 1641.65 36.5698C1647.15 47.5325 1660.95 56.9934 1659.95 63.8263C1658.85 70.7344 1642.95 75.0143 1629.85 78.168C1616.75 81.3216 1606.35 83.4241 1593.56 86.0521C1580.66 88.6801 1565.26 91.8338 1552.16 88.6801C1539.06 85.4514 1528.26 75.9154 1520.86 64.2769C1513.37 52.6384 1509.27 38.8224 1514.07 27.0337C1518.86 15.3201 1532.56 5.55882 1547.66 1.87956C1562.86 -1.72462 1579.46 0.828339 1595.36 1.57921C1611.15 2.33008 1626.25 1.35395 1632.55 7.13565Z" fill="#FFBB3D" fill-opacity="0.2"/>
<path d="M2755.5 75.6998C2761.6 85.8998 2748.5 107.5 2735.9 126.3C2723.3 145 2711.1 161 2698.2 161.5C2685.3 162 2671.5 146.9 2660.4 128.9C2649.2 111 2640.6 90.0998 2647.5 79.3998C2654.3 68.6998 2676.7 68.1998 2700.4 67.2998C2724.2 66.4998 2749.4 65.3998 2755.5 75.6998Z" fill="#003478" fill-opacity="0.14"/>
<path d="M2361.7 6457.1C2374.1 6466.2 2387.7 6473.5 2396.3 6485.8C2404.8 6498.1 2408.4 6515.3 2404.7 6531.4C2401.1 6547.5 2390.3 6562.4 2376.2 6574.1C2362 6585.7 2344.5 6594.1 2330.4 6589.4C2316.3 6584.7 2305.6 6566.9 2290 6555.7C2274.4 6544.6 2253.8 6540 2250.7 6529.9C2247.6 6519.8 2261.9 6504.1 2271.2 6490.3C2280.5 6476.6 2284.7 6464.6 2293.2 6454.2C2301.7 6443.8 2314.3 6435 2326.2 6436C2338.2 6437 2349.3 6448 2361.7 6457.1Z" fill="#003478" fill-opacity="0.14"/>
<path d="M2582 6373.6C2586 6380.9 2576 6403 2575.1 6418C2574.2 6433 2582.4 6440.9 2582.6 6448C2582.8 6455.1 2575.1 6461.5 2567 6472.1C2558.9 6482.8 2550.4 6497.7 2539.3 6501.4C2528.2 6505.1 2514.5 6497.4 2507.4 6486.4C2500.3 6475.5 2499.9 6461.1 2491.4 6446.7C2482.9 6432.2 2466.4 6417.6 2465.1 6403.8C2463.8 6390.1 2477.9 6377.1 2493.3 6373.5C2508.6 6370 2525.3 6375.9 2542.7 6375C2560 6374.1 2578 6366.4 2582 6373.6Z" fill="#FFBB3D" fill-opacity="0.2"/>
<path d="M2007.2 6134.5C2014.9 6146.8 2016.1 6161.4 2015.2 6173.2C2014.2 6185 2011.1 6194 2012.9 6209.6C2014.7 6225.2 2021.4 6247.4 2015.2 6257.3C2009.1 6267.2 1990 6264.8 1971 6264.8C1952 6264.8 1932.9 6267.2 1920.1 6259.5C1907.4 6251.7 1900.9 6233.8 1899.3 6217.1C1897.7 6200.4 1900.9 6184.8 1910.8 6176.7C1920.7 6168.6 1937.3 6168 1948.4 6156.8C1959.5 6145.6 1965.3 6123.9 1975.2 6118.1C1985.2 6112.2 1999.4 6122.2 2007.2 6134.5Z" fill="#FFBB3D" fill-opacity="0.2"/>
<path d="M111.99 3122.9C117.634 3130.9 120.373 3140.8 128.258 3152.7C136.143 3164.7 149.257 3178.7 149.423 3190.7C149.672 3202.7 137.056 3212.7 124.855 3223.1C112.654 3233.4 100.785 3244 91.6553 3239.6C82.5253 3235.2 75.9684 3215.8 63.1864 3205.7C50.4874 3195.6 31.3974 3194.8 26.5004 3186.2C21.6034 3177.6 30.8994 3161.3 39.8634 3149.9C48.8274 3138.6 57.4594 3132.3 65.5934 3125.2C73.7274 3118.2 81.3634 3110.4 89.4974 3109.5C97.6314 3108.7 106.263 3114.8 111.99 3122.9Z" fill="#003478" fill-opacity="0.14"/>
<path d="M299.5 5158.7C305.6 5168.9 292.5 5190.5 279.9 5209.3C267.3 5228 255.1 5244 242.2 5244.5C229.3 5245 215.5 5229.9 204.4 5211.9C193.2 5194 184.6 5173.1 191.5 5162.4C198.3 5151.7 220.7 5151.2 244.4 5150.3C268.2 5149.5 293.4 5148.4 299.5 5158.7Z" fill="#003478" fill-opacity="0.14"/>
<path d="M2682 3975.6C2686 3982.9 2676 4005 2675.1 4020C2674.2 4035 2682.4 4042.9 2682.6 4050C2682.8 4057.1 2675.1 4063.5 2667 4074.1C2658.9 4084.8 2650.4 4099.7 2639.3 4103.4C2628.2 4107.1 2614.5 4099.4 2607.4 4088.4C2600.3 4077.5 2599.9 4063.1 2591.4 4048.7C2582.9 4034.2 2566.4 4019.6 2565.1 4005.8C2563.8 3992.1 2577.9 3979.1 2593.3 3975.5C2608.6 3972 2625.3 3977.9 2642.7 3977C2660 3976.1 2678 3968.4 2682 3975.6Z" fill="#FFBB3D" fill-opacity="0.2"/>
<path d="M232.401 5797.3C241.101 5804.4 239.601 5824.7 238.601 5840.5C237.701 5856.2 237.201 5867.3 236.301 5880.9C235.401 5894.5 234.201 5910.6 225.701 5916.4C217.301 5922.2 201.701 5917.8 185.901 5918C170.201 5918.1 154.401 5922.7 139.101 5919.1C123.801 5915.5 108.901 5903.7 107.701 5889.8C106.501 5875.9 118.801 5860.1 128.601 5847.5C138.401 5834.9 145.701 5825.7 154.801 5818.7C164.001 5811.8 175.001 5807 189.901 5801.6C204.901 5796.2 223.701 5790.2 232.401 5797.3Z" fill="#003478" fill-opacity="0.14"/>
<path d="M101.102 6303.03C102.394 6310.29 99.1654 6332.25 98.8748 6347.16C98.5842 6362.07 101.232 6369.93 101.296 6376.99C101.361 6384.04 98.8748 6390.4 96.2598 6400.94C93.6449 6411.58 90.9008 6426.39 87.3173 6430.07C83.7338 6433.74 79.311 6426.09 77.0188 6415.16C74.7267 6404.32 74.5975 6390.01 71.8534 6375.69C69.1093 6361.28 63.7825 6346.77 63.3629 6333.05C62.9432 6319.43 67.4952 6306.51 72.4668 6302.93C77.4062 6299.45 82.7976 6305.32 88.4149 6304.42C94 6303.53 99.811 6295.87 101.102 6303.03Z" fill="#FFBB3D" fill-opacity="0.2"/>
<path d="M281.7 1443.8C292.5 1447.5 300.1 1459.8 298 1471C295.8 1482.2 284 1492.3 281.7 1507.5C279.4 1522.6 286.6 1542.8 281.7 1555.8C276.9 1568.8 259.9 1574.6 244.3 1572.9C228.6 1571.1 214.2 1561.8 206.5 1549.7C198.9 1537.6 198 1522.8 200.7 1511.4C203.5 1500 209.8 1492.2 214.9 1486C219.9 1479.9 223.5 1475.6 228 1469.8C232.4 1464.1 237.7 1457 247.3 1451C257 1445 271 1440.1 281.7 1443.8Z" fill="#FFBB3D" fill-opacity="0.2"/>
<path d="M547.1 77.8002C552.7 91.3002 541.2 110.9 529.9 128.4C518.5 145.9 507.2 161.4 494.1 162.5C480.9 163.6 465.9 150.3 458.6 135.1C451.3 119.9 451.7 102.8 459.2 88.2002C466.8 73.7002 481.4 61.6002 500.1 59.3002C518.7 57.0002 541.4 64.3002 547.1 77.8002Z" fill="#003478" fill-opacity="0.14"/>
<path d="M66.5505 1.09848C75.2746 4.2698 81.4139 14.8123 79.7175 24.412C77.9404 34.0117 68.4084 42.6685 66.5505 55.6967C64.6926 68.6391 70.5087 85.9528 66.5505 97.0953C62.6731 108.238 48.9406 113.209 36.339 111.752C23.6566 110.209 12.0244 102.238 5.8044 91.8669C-0.334826 81.4958 -1.06184 68.8105 1.1192 59.0394C3.38102 49.2683 8.47012 42.5828 12.5899 37.2687C16.6288 32.0403 19.5369 28.3547 23.172 23.3834C26.7263 18.4979 31.0076 12.4124 38.7624 7.2697C46.598 2.12702 57.9071 -2.07284 66.5505 1.09848Z" fill="#FFBB3D" fill-opacity="0.2"/>
<path d="M1312.6 4590C1324.1 4602.8 1339.7 4605.7 1344 4613.5C1348.4 4621.3 1341.5 4634 1335.8 4645.9C1330.2 4657.7 1325.8 4668.7 1317.7 4678.1C1309.6 4687.4 1297.8 4695.2 1284.4 4697.3C1271.1 4699.5 1256.1 4696.1 1243.4 4688.2C1230.7 4680.4 1220.1 4668.1 1215.7 4653.9C1211.2 4639.8 1212.8 4623.8 1219.2 4610.9C1225.6 4598.1 1236.8 4588.4 1248.8 4575.8C1260.7 4563.1 1273.3 4547.4 1283.4 4551C1293.5 4554.5 1301 4577.3 1312.6 4590Z" fill="#003478" fill-opacity="0.14"/>
<path d="M1933.5 2560.7C1944.9 2573.1 1952.5 2586.5 1955.6 2600.3C1958.8 2614.2 1957.4 2628.5 1955.8 2645.5C1954.1 2662.5 1952 2682.1 1941.3 2687.1C1930.7 2692 1911.3 2682.1 1895.1 2677.8C1879 2673.5 1865.9 2674.7 1851.2 2671.1C1836.5 2667.5 1820.2 2659.1 1814.9 2646.3C1809.7 2633.5 1815.6 2616.3 1824.7 2603.8C1833.8 2591.2 1846 2583.4 1857.8 2571.2C1869.5 2558.9 1880.8 2542.3 1893.9 2539.6C1907.1 2537 1922.2 2548.4 1933.5 2560.7Z" fill="#003478" fill-opacity="0.14"/>
<path d="M2541.2 1890.6C2552.2 1893.2 2554.9 1912.4 2556.2 1929.2C2557.5 1945.9 2557.5 1960.1 2551.9 1971.1C2546.4 1982.1 2535.5 1989.9 2524.6 1992.5C2513.7 1995.1 2502.8 1992.4 2490.1 1995C2477.4 1997.6 2462.8 2005.5 2452.9 2002.6C2443.1 1999.6 2438.1 1985.9 2441 1974.4C2443.8 1962.9 2454.5 1953.6 2459 1943C2463.4 1932.3 2461.5 1920.4 2466 1915.8C2470.4 1911.1 2481.2 1913.8 2496.2 1908.1C2511.2 1902.3 2530.3 1888.1 2541.2 1890.6Z" fill="#FFBB3D" fill-opacity="0.2"/>
<path d="M799.699 2478C809.899 2481.2 812.199 2499.6 816.699 2516.6C821.299 2533.6 828.199 2549.1 824.499 2561.4C820.799 2573.8 806.499 2582.9 792.799 2592.6C779.199 2602.3 766.099 2612.5 751.399 2614.7C736.699 2616.9 720.499 2611.1 709.799 2600.4C699.099 2589.7 693.999 2574.3 693.399 2560.2C692.799 2546.2 696.699 2533.6 700.499 2520.6C704.299 2507.7 707.999 2494.4 716.699 2490.7C725.399 2487.1 739.199 2493 755.199 2490C771.199 2486.9 789.399 2474.8 799.699 2478Z" fill="#FFBB3D" fill-opacity="0.2"/>
<path d="M1700.6 2426.3C1714.3 2427.4 1735.3 2427.3 1743.7 2435.5C1752.1 2443.7 1747.9 2460.2 1738.3 2470.3C1728.7 2480.5 1713.8 2484.4 1702.2 2493.1C1690.6 2501.8 1682.3 2515.3 1673.9 2515.5C1665.4 2515.7 1656.8 2502.6 1644.5 2494.1C1632.2 2485.7 1616.3 2481.8 1608.8 2472.1C1601.4 2462.3 1602.5 2446.7 1611 2437.6C1619.5 2428.4 1635.5 2425.6 1647.2 2423.8C1658.9 2422 1666.5 2421.2 1673.4 2422C1680.4 2422.7 1686.8 2425.1 1700.6 2426.3Z" fill="#FFBB3D" fill-opacity="0.2"/>
<path d="M1274.1 1432.7C1284.9 1439.6 1297.9 1442.1 1308.9 1449.6C1320 1457 1329.2 1469.5 1329.1 1482C1329.1 1494.4 1319.8 1506.8 1312.7 1521.2C1305.5 1535.5 1300.6 1551.7 1289.8 1557C1279.1 1562.3 1262.5 1556.5 1249.8 1549.9C1237.1 1543.3 1228.2 1535.8 1219 1529.6C1209.9 1523.4 1200.5 1518.5 1191.4 1510.8C1182.4 1503.1 1173.6 1492.6 1170 1479.9C1166.4 1467.3 1168 1452.6 1176.4 1443.8C1184.9 1434.9 1200.1 1432 1212.9 1426.2C1225.6 1420.4 1235.8 1411.8 1245.2 1413.2C1254.7 1414.5 1263.3 1425.8 1274.1 1432.7Z" fill="#FFBB3D" fill-opacity="0.2"/>
<path d="M757.901 1007.2C765.701 1007.8 770.501 1017.8 777.001 1027.3C783.601 1036.8 792.001 1045.9 797.101 1058C802.201 1070 804.101 1085 795.101 1090.3C786.101 1095.7 766.301 1091.4 753.301 1098.9C740.401 1106.4 734.201 1125.6 725.401 1130.1C716.701 1134.5 705.301 1124.2 701.401 1111.5C697.401 1098.8 700.801 1083.8 695.001 1074C689.301 1064.2 674.401 1059.6 673.601 1054.5C672.801 1049.5 686.101 1044 695.301 1040.2C704.501 1036.4 709.701 1034.3 714.501 1032C719.201 1029.6 723.601 1027 731.301 1021.2C739.001 1015.5 750.001 1006.7 757.901 1007.2Z" fill="#FFBB3D" fill-opacity="0.2"/>
<g clip-path="url(#clip7_275_417)">
<path d="M2043.42 881.592C2060.02 894.892 2070.12 917.992 2069.02 939.892C2067.82 961.892 2055.42 982.692 2038.72 997.592C2022.12 1012.39 2001.32 1021.29 1982.22 1019.59C1963.02 1017.99 1945.62 1005.69 1929.22 990.892C1912.82 975.992 1897.52 958.592 1896.12 939.692C1894.62 920.792 1907.22 900.492 1923.52 887.292C1939.92 873.992 1960.22 867.692 1981.92 866.292C2003.62 864.892 2026.72 868.292 2043.42 881.592Z" fill="#003478" fill-opacity="0.14"/>
</g>
<path d="M2206.9 671.318C2220.9 679.318 2230 696.018 2233.7 713.118C2237.4 730.218 2235.6 747.818 2229.7 763.418C2223.8 779.018 2213.8 792.718 2200.7 802.218C2187.7 811.818 2171.6 817.318 2154.1 819.318C2136.5 821.218 2117.5 819.818 2102.1 811.018C2086.6 802.218 2074.6 786.118 2070.6 768.718C2066.6 751.318 2070.7 732.518 2076.4 714.018C2082.1 695.618 2089.6 677.518 2103.1 669.418C2116.5 661.218 2136 663.018 2155.1 663.518C2174.2 664.018 2192.9 663.318 2206.9 671.318Z" fill="#FFBB3D" fill-opacity="0.2"/>
<path d="M1115.1 2179.7C1125.9 2186.6 1138.9 2189.1 1149.9 2196.6C1161 2204 1170.2 2216.5 1170.1 2229C1170.1 2241.4 1160.8 2253.8 1153.7 2268.2C1146.5 2282.5 1141.6 2298.7 1130.8 2304C1120.1 2309.3 1103.5 2303.5 1090.8 2296.9C1078.1 2290.3 1069.2 2282.8 1060 2276.6C1050.9 2270.4 1041.5 2265.5 1032.4 2257.8C1023.4 2250.1 1014.6 2239.6 1011 2226.9C1007.4 2214.3 1009 2199.6 1017.4 2190.8C1025.9 2181.9 1041.1 2179 1053.9 2173.2C1066.6 2167.4 1076.8 2158.8 1086.2 2160.2C1095.7 2161.5 1104.3 2172.8 1115.1 2179.7Z" fill="#FFBB3D" fill-opacity="0.2"/>
<path d="M1056.9 1795.2C1064.7 1795.8 1069.5 1805.8 1076 1815.3C1082.6 1824.8 1091 1833.9 1096.1 1846C1101.2 1858 1103.1 1873 1094.1 1878.3C1085.1 1883.7 1065.3 1879.4 1052.3 1886.9C1039.4 1894.4 1033.2 1913.6 1024.4 1918.1C1015.7 1922.5 1004.3 1912.2 1000.4 1899.5C996.401 1886.8 999.801 1871.8 994.001 1862C988.301 1852.2 973.401 1847.6 972.601 1842.5C971.801 1837.5 985.101 1832 994.301 1828.2C1003.5 1824.4 1008.7 1822.3 1013.5 1820C1018.2 1817.6 1022.6 1815 1030.3 1809.2C1038 1803.5 1049 1794.7 1056.9 1795.2Z" fill="#FFBB3D" fill-opacity="0.2"/>
<path d="M644.2 2989.9C658.2 3001.2 671 3013 677.7 3028.1C684.5 3043.2 685.2 3061.6 680.5 3078.8C675.8 3096 665.6 3112.1 651.2 3121C636.9 3129.8 618.5 3131.5 602.2 3128.5C585.9 3125.4 571.9 3117.8 557.7 3108.8C543.6 3099.9 529.4 3089.7 526.3 3076.8C523.2 3063.8 531.3 3048.1 537.5 3032.5C543.6 3016.9 547.9 3001.5 558 2988.9C568.1 2976.3 584.1 2966.5 599.6 2967.1C615.1 2967.6 630.3 2978.5 644.2 2989.9Z" fill="#FFBB3D" fill-opacity="0.2"/>
<path d="M1483.9 4078.2C1491.7 4078.8 1496.5 4088.8 1503 4098.3C1509.6 4107.8 1518 4116.9 1523.1 4129C1528.2 4141 1530.1 4156 1521.1 4161.3C1512.1 4166.7 1492.3 4162.4 1479.3 4169.9C1466.4 4177.4 1460.2 4196.6 1451.4 4201.1C1442.7 4205.5 1431.3 4195.2 1427.4 4182.5C1423.4 4169.8 1426.8 4154.8 1421 4145C1415.3 4135.2 1400.4 4130.6 1399.6 4125.5C1398.8 4120.5 1412.1 4115 1421.3 4111.2C1430.5 4107.4 1435.7 4105.3 1440.5 4103C1445.2 4100.6 1449.6 4098 1457.3 4092.2C1465 4086.5 1476 4077.7 1483.9 4078.2Z" fill="#FFBB3D" fill-opacity="0.2"/>
<path d="M1771.1 1081.3C1783.8 1083 1796.7 1089.6 1801.9 1100.2C1807.1 1110.9 1804.4 1125.4 1802.2 1138.7C1799.9 1152 1798.1 1164 1793.3 1175.2C1788.5 1186.5 1780.8 1197 1770.4 1199.9C1760 1202.7 1747 1197.8 1734 1197.9C1720.9 1198 1707.8 1203 1694.4 1201.9C1680.9 1200.9 1666.9 1193.8 1661.9 1182.5C1656.8 1171.2 1660.5 1155.6 1665.6 1142.9C1670.7 1130.3 1677 1120.5 1680.6 1106.6C1684.2 1092.7 1685 1074.7 1693.5 1070.6C1701.9 1066.5 1718 1076.4 1732.1 1079.7C1746.3 1083 1758.5 1079.6 1771.1 1081.3Z" fill="#FFBB3D" fill-opacity="0.2"/>
<path d="M2635.1 1616.8C2640.7 1630.3 2629.2 1649.9 2617.9 1667.4C2606.5 1684.9 2595.2 1700.4 2582.1 1701.5C2568.9 1702.6 2553.9 1689.3 2546.6 1674.1C2539.3 1658.9 2539.7 1641.8 2547.2 1627.2C2554.8 1612.7 2569.4 1600.6 2588.1 1598.3C2606.7 1596 2629.4 1603.3 2635.1 1616.8Z" fill="#003478" fill-opacity="0.14"/>
<path d="M2426.5 2631.7C2437.9 2644.1 2445.5 2657.5 2448.6 2671.3C2451.8 2685.2 2450.4 2699.5 2448.8 2716.5C2447.1 2733.5 2445 2753.1 2434.3 2758.1C2423.7 2763 2404.3 2753.1 2388.1 2748.8C2372 2744.5 2358.9 2745.7 2344.2 2742.1C2329.5 2738.5 2313.2 2730.1 2307.9 2717.3C2302.7 2704.5 2308.6 2687.3 2317.7 2674.8C2326.8 2662.2 2339 2654.4 2350.8 2642.2C2362.5 2629.9 2373.8 2613.3 2386.9 2610.6C2400.1 2608 2415.2 2619.4 2426.5 2631.7Z" fill="#003478" fill-opacity="0.14"/>
<path d="M2728.2 2204.1C2738.8 2220.6 2736 2246.5 2724 2261.9C2712.1 2277.2 2691.1 2281.9 2675 2279C2658.9 2276.1 2647.8 2265.7 2634.7 2249.7C2621.7 2233.8 2606.7 2212.3 2612.3 2198.6C2617.8 2184.9 2643.9 2179 2668.9 2179.7C2693.9 2180.3 2717.7 2187.5 2728.2 2204.1Z" fill="#003478" fill-opacity="0.14"/>
<path d="M2515.9 4823.8C2531.2 4825 2546.6 4836.1 2549.4 4850C2552.3 4863.9 2542.6 4880.7 2533.8 4894.8C2525.1 4908.8 2517.4 4920.3 2507 4923C2496.5 4925.7 2483.2 4919.7 2468.5 4921.8C2453.7 4923.9 2437.4 4934.1 2431 4930.1C2424.5 4926 2427.9 4907.8 2423.9 4892.7C2419.9 4877.5 2408.5 4865.4 2405.3 4850C2402.1 4834.5 2406.9 4815.7 2419.1 4813.5C2431.2 4811.3 2450.6 4825.6 2467.9 4828.4C2485.3 4831.3 2500.5 4822.6 2515.9 4823.8Z" fill="#FFBB3D" fill-opacity="0.2"/>
<path d="M738.9 3467.9C753.1 3472.6 762.4 3489.9 757.5 3504.7C752.5 3519.5 733.4 3531.8 726.8 3547.1C720.2 3562.3 726.2 3580.4 721.5 3591.7C716.8 3603 701.4 3607.4 684.7 3609.3C668 3611.1 649.9 3610.3 639 3601.1C628 3591.8 624.2 3574.1 625.9 3559.2C627.5 3544.4 634.6 3532.5 637.1 3517.4C639.7 3502.3 637.6 3484 645 3477C652.4 3470.1 669.2 3474.5 687.2 3472.8C705.3 3471.1 724.6 3463.2 738.9 3467.9Z" fill="#FFBB3D" fill-opacity="0.2"/>
<path d="M226.6 3593.3C240.3 3594.4 261.3 3594.3 269.7 3602.5C278.1 3610.7 273.9 3627.2 264.3 3637.3C254.7 3647.5 239.8 3651.4 228.2 3660.1C216.6 3668.8 208.3 3682.3 199.9 3682.5C191.4 3682.7 182.8 3669.6 170.5 3661.1C158.2 3652.7 142.3 3648.8 134.8 3639.1C127.4 3629.3 128.5 3613.7 137 3604.6C145.5 3595.4 161.5 3592.6 173.2 3590.8C184.9 3589 192.5 3588.2 199.4 3589C206.4 3589.7 212.8 3592.1 226.6 3593.3Z" fill="#FFBB3D" fill-opacity="0.2"/>
<path d="M185.5 1275.7C191.6 1285.9 178.5 1307.5 165.9 1326.3C153.3 1345 141.1 1361 128.2 1361.5C115.3 1362 101.5 1346.9 90.3997 1328.9C79.1997 1311 70.5997 1290.1 77.4997 1279.4C84.2997 1268.7 106.7 1268.2 130.4 1267.3C154.2 1266.5 179.4 1265.4 185.5 1275.7Z" fill="#003478" fill-opacity="0.14"/>
<path d="M144.1 853.8C155.6 860.9 169.2 866.3 174.5 875.9C179.7 885.5 176.5 899.4 168.7 908.2C160.9 917 148.5 920.7 138.6 928.6C128.7 936.6 121.4 948.8 111.6 952.1C101.8 955.5 89.6 949.9 79.9 941.9C70.3 933.9 63.1 923.4 57.7 911.2C52.3 899.1 48.6 885.3 55.2 878C61.9 870.8 79 870.1 90.5 863C102.1 855.9 108 842.5 115.7 840.2C123.3 837.9 132.6 846.7 144.1 853.8Z" fill="#FFBB3D" fill-opacity="0.2"/>
<path d="M795.6 652.3C809.3 653.4 830.3 653.3 838.7 661.5C847.1 669.7 842.9 686.2 833.3 696.3C823.7 706.5 808.8 710.4 797.2 719.1C785.6 727.8 777.3 741.3 768.9 741.5C760.4 741.7 751.8 728.6 739.5 720.1C727.2 711.7 711.3 707.8 703.8 698.1C696.4 688.3 697.5 672.7 706 663.6C714.5 654.4 730.5 651.6 742.2 649.8C753.9 648 761.5 647.2 768.4 648C775.4 648.7 781.8 651.1 795.6 652.3Z" fill="#FFBB3D" fill-opacity="0.2"/>
<path d="M1644.1 2541.9C1655.3 2554.7 1672.3 2554.9 1684.6 2563.6C1696.9 2572.2 1704.6 2589.3 1697 2597.8C1689.3 2606.4 1666.4 2606.5 1651.4 2617.1C1636.4 2627.7 1629.2 2648.7 1622.6 2647.8C1616.1 2646.9 1610.2 2624.1 1594.8 2613.7C1579.4 2603.2 1554.4 2605.2 1546.6 2597.6C1538.8 2590.1 1548.3 2573.1 1555 2556.1C1561.7 2539.2 1565.8 2522.2 1576.5 2509.2C1587.3 2496.2 1604.6 2487 1616 2495.2C1627.4 2503.5 1632.9 2529 1644.1 2541.9Z" fill="#FFBB3D" fill-opacity="0.2"/>
<path d="M2258.2 3348.8C2269.4 3351.5 2282.3 3357.3 2284.8 3366.3C2287.3 3375.2 2279.4 3387.1 2270.9 3394.6C2262.5 3402 2253.5 3404.8 2246.2 3408.1C2239 3411.3 2233.5 3414.8 2221.5 3423.7C2209.6 3432.6 2191.2 3446.8 2179.7 3444.9C2168.2 3443.1 2163.7 3425.2 2167.6 3410.8C2171.4 3396.4 2183.7 3385.5 2188.4 3372.4C2193 3359.3 2190.1 3344 2195.4 3339.4C2200.7 3334.8 2214.4 3340.9 2225.9 3343.8C2237.5 3346.6 2247 3346.2 2258.2 3348.8Z" fill="#FFBB3D" fill-opacity="0.2"/>
<path d="M1880.36 1521.53C1890.56 1524.73 1892.86 1543.13 1897.36 1560.13C1901.96 1577.13 1908.86 1592.63 1905.16 1604.93C1901.46 1617.33 1887.16 1626.43 1873.46 1636.13C1859.86 1645.83 1846.76 1656.03 1832.06 1658.23C1817.36 1660.43 1801.16 1654.63 1790.46 1643.93C1779.76 1633.23 1774.66 1617.83 1774.06 1603.73C1773.46 1589.73 1777.36 1577.13 1781.16 1564.13C1784.96 1551.23 1788.66 1537.93 1797.36 1534.23C1806.06 1530.63 1819.86 1536.53 1835.86 1533.53C1851.86 1530.43 1870.06 1518.33 1880.36 1521.53Z" fill="#FFBB3D" fill-opacity="0.2"/>
<g clip-path="url(#clip8_275_417)">
<path d="M2235.68 1401.94C2246.38 1411.64 2254.48 1422.84 2256.58 1434.84C2258.68 1446.74 2254.78 1459.34 2250.38 1471.44C2245.98 1483.54 2241.18 1495.24 2232.48 1504.54C2223.68 1513.84 2211.18 1520.84 2196.18 1524.24C2181.18 1527.54 2163.68 1527.24 2155.68 1517.64C2147.68 1508.14 2149.08 1489.34 2141.98 1472.24C2134.88 1455.14 2119.38 1439.64 2122.38 1430.04C2125.28 1420.54 2146.78 1416.84 2162.58 1408.84C2178.38 1400.84 2188.48 1388.54 2200.18 1386.34C2211.78 1384.24 2225.08 1392.24 2235.68 1401.94Z" fill="#003478" fill-opacity="0.14"/>
</g>
<path d="M2612.6 715.012C2623.3 725.712 2626.3 743.912 2626.5 760.212C2626.8 776.612 2624.2 791.212 2617.2 803.512C2610.3 815.712 2599.1 825.512 2584 835.712C2568.9 845.912 2550 856.412 2535.5 852.212C2521 848.112 2510.9 829.312 2506.2 811.912C2501.5 794.512 2502.3 778.412 2506.5 764.412C2510.7 750.312 2518.2 738.312 2528.6 727.612C2538.9 716.812 2552.1 707.312 2567.8 704.112C2583.6 701.012 2601.9 704.312 2612.6 715.012Z" fill="#003478" fill-opacity="0.14"/>
<path d="M764.301 3170.3C771.501 3176.5 770.401 3193.2 771.001 3206.6C771.501 3220 773.701 3230.1 776.101 3245.7C778.601 3261.4 781.201 3282.5 772.901 3294C764.601 3305.4 745.301 3307.2 731.501 3299.6C717.701 3292 709.501 3275.1 700.101 3264C690.701 3252.9 680.101 3247.6 678.001 3239.9C676.001 3232.2 682.501 3222.1 685.401 3210.2C688.401 3198.3 687.901 3184.6 694.101 3178C700.301 3171.4 713.201 3171.8 727.301 3170C741.501 3168.1 757.101 3164 764.301 3170.3Z" fill="#003478" fill-opacity="0.14"/>
<g clip-path="url(#clip9_275_417)">
<path d="M708.401 5729.3C717.101 5736.4 715.601 5756.7 714.601 5772.5C713.701 5788.2 713.201 5799.3 712.301 5812.9C711.401 5826.5 710.201 5842.6 701.701 5848.4C693.301 5854.2 677.701 5849.8 661.901 5850C646.201 5850.1 630.401 5854.7 615.101 5851.1C599.801 5847.5 584.901 5835.7 583.701 5821.8C582.501 5807.9 594.801 5792.1 604.601 5779.5C614.401 5766.9 621.701 5757.7 630.801 5750.7C640.001 5743.8 651.001 5739 665.901 5733.6C680.901 5728.2 699.701 5722.2 708.401 5729.3Z" fill="#003478" fill-opacity="0.14"/>
<path d="M777.1 5814.8C788.6 5821.9 802.2 5827.3 807.5 5836.9C812.7 5846.5 809.5 5860.4 801.7 5869.2C793.9 5878 781.5 5881.7 771.6 5889.6C761.7 5897.6 754.4 5909.8 744.6 5913.1C734.8 5916.5 722.6 5910.9 712.9 5902.9C703.3 5894.9 696.1 5884.4 690.7 5872.2C685.3 5860.1 681.6 5846.3 688.2 5839C694.9 5831.8 712 5831.1 723.5 5824C735.1 5816.9 741 5803.5 748.7 5801.2C756.3 5798.9 765.6 5807.7 777.1 5814.8Z" fill="#FFBB3D" fill-opacity="0.2"/>
</g>
<path d="M1792.1 5977.9C1799.7 5984.3 1806.5 5990.8 1816.8 6001.2C1827.2 6011.6 1841.1 6026 1837.7 6034.1C1834.3 6042.2 1813.5 6044.2 1799 6047.5C1784.5 6050.9 1776.3 6055.7 1765.3 6059.4C1754.3 6063.1 1740.6 6065.8 1726.2 6062.4C1711.7 6059.1 1696.4 6049.6 1696.8 6038.1C1697.3 6026.6 1713.4 6013.1 1718.8 5995.9C1724.3 5978.8 1719.1 5958.1 1725.5 5951.4C1731.9 5944.7 1749.9 5951.9 1763.1 5958.6C1776.3 5965.3 1784.6 5971.5 1792.1 5977.9Z" fill="#003478" fill-opacity="0.14"/>
<path d="M1690.7 6146.1C1703.1 6155.2 1716.7 6162.5 1725.3 6174.8C1733.8 6187.1 1737.4 6204.3 1733.7 6220.4C1730.1 6236.5 1719.3 6251.4 1705.2 6263.1C1691 6274.7 1673.5 6283.1 1659.4 6278.4C1645.3 6273.7 1634.6 6255.9 1619 6244.7C1603.4 6233.6 1582.8 6229 1579.7 6218.9C1576.6 6208.8 1590.9 6193.1 1600.2 6179.3C1609.5 6165.6 1613.7 6153.6 1622.2 6143.2C1630.7 6132.8 1643.3 6124 1655.2 6125C1667.2 6126 1678.3 6137 1690.7 6146.1Z" fill="#003478" fill-opacity="0.14"/>
<path d="M2210.1 4604C2220.8 4613.7 2228.9 4624.9 2231 4636.9C2233.1 4648.8 2229.2 4661.4 2224.8 4673.5C2220.4 4685.6 2215.6 4697.3 2206.9 4706.6C2198.1 4715.9 2185.6 4722.9 2170.6 4726.3C2155.6 4729.6 2138.1 4729.3 2130.1 4719.7C2122.1 4710.2 2123.5 4691.4 2116.4 4674.3C2109.3 4657.2 2093.8 4641.7 2096.8 4632.1C2099.7 4622.6 2121.2 4618.9 2137 4610.9C2152.8 4602.9 2162.9 4590.6 2174.6 4588.4C2186.2 4586.3 2199.5 4594.3 2210.1 4604Z" fill="#003478" fill-opacity="0.14"/>
<path d="M625.501 4350.7C636.901 4363.1 644.501 4376.5 647.601 4390.3C650.801 4404.2 649.401 4418.5 647.801 4435.5C646.101 4452.5 644.001 4472.1 633.301 4477.1C622.701 4482 603.301 4472.1 587.101 4467.8C571.001 4463.5 557.901 4464.7 543.201 4461.1C528.501 4457.5 512.201 4449.1 506.901 4436.3C501.701 4423.5 507.601 4406.3 516.701 4393.8C525.801 4381.2 538.001 4373.4 549.801 4361.2C561.501 4348.9 572.801 4332.3 585.901 4329.6C599.101 4327 614.201 4338.4 625.501 4350.7Z" fill="#003478" fill-opacity="0.14"/>
<path d="M1787.5 2777.7C1798.9 2790.1 1806.5 2803.5 1809.6 2817.3C1812.8 2831.2 1811.4 2845.5 1809.8 2862.5C1808.1 2879.5 1806 2899.1 1795.3 2904.1C1784.7 2909 1765.3 2899.1 1749.1 2894.8C1733 2890.5 1719.9 2891.7 1705.2 2888.1C1690.5 2884.5 1674.2 2876.1 1668.9 2863.3C1663.7 2850.5 1669.6 2833.3 1678.7 2820.8C1687.8 2808.2 1700 2800.4 1711.8 2788.2C1723.5 2775.9 1734.8 2759.3 1747.9 2756.6C1761.1 2754 1776.2 2765.4 1787.5 2777.7Z" fill="#003478" fill-opacity="0.14"/>
<path d="M1785.3 469.5C1799 479.8 1813.6 488.6 1818.7 501.1C1823.8 513.7 1819.5 530.1 1811.6 542.6C1803.8 555.1 1792.5 563.7 1780.9 571.7C1769.4 579.6 1757.7 586.8 1742.2 592C1726.7 597.2 1707.4 600.4 1699 591.5C1690.6 582.6 1693.1 561.5 1693.6 545.2C1694.2 529 1692.7 517.6 1692.8 503.4C1692.9 489.2 1694.4 472.1 1703.5 460.3C1712.6 448.5 1729.3 442 1744.1 444.7C1758.8 447.3 1771.6 459.2 1785.3 469.5Z" fill="#003478" fill-opacity="0.14"/>
<path d="M1431.7 3844.8C1443.5 3857.1 1456.1 3864.6 1465.4 3876.9C1474.7 3889.3 1480.6 3906.5 1477.9 3922.9C1475.3 3939.3 1464.1 3954.9 1449.3 3960.2C1434.6 3965.6 1416.3 3960.6 1398 3960.6C1379.7 3960.5 1361.4 3965.5 1353.4 3958C1345.4 3950.5 1347.7 3930.6 1344.1 3913.9C1340.6 3897.2 1331.3 3883.7 1333.1 3872.6C1334.9 3861.4 1347.8 3852.6 1360.5 3840.5C1373.2 3828.4 1385.6 3813.1 1397.3 3814.1C1409 3815 1419.9 3832.4 1431.7 3844.8Z" fill="#003478" fill-opacity="0.14"/>
<path d="M2052.4 5593.7C2061.5 5606.3 2060.5 5626.8 2065 5644.6C2069.4 5662.3 2079.3 5677.3 2077.6 5690.5C2076 5703.7 2062.8 5715 2048.7 5719.9C2034.7 5724.9 2019.9 5723.5 2005.1 5723.2C1990.4 5723 1975.9 5724.1 1964.2 5718.3C1952.6 5712.6 1943.8 5700.2 1937.2 5685.7C1930.6 5671.1 1926.2 5654.6 1933.4 5644.6C1940.5 5634.6 1959.3 5631.2 1973.1 5620.1C1987 5609 1996 5590.2 2010.1 5583.2C2024.2 5576.2 2043.4 5581 2052.4 5593.7Z" fill="#003478" fill-opacity="0.14"/>
<path d="M1176.61 1171.54C1185.11 1176.34 1190.81 1186.34 1199.11 1198.74C1207.31 1211.04 1218.01 1225.64 1217.01 1238.84C1216.01 1252.04 1203.31 1263.74 1189.41 1274.64C1175.51 1285.64 1160.41 1295.64 1145.11 1295.94C1129.91 1296.14 1114.51 1286.44 1099.11 1276.04C1083.81 1265.54 1068.61 1254.24 1069.01 1241.34C1069.51 1228.34 1085.61 1213.64 1097.01 1203.24C1108.31 1192.74 1114.81 1186.44 1122.11 1181.24C1129.31 1176.14 1137.31 1172.04 1147.01 1169.74C1156.71 1167.44 1168.01 1166.84 1176.61 1171.54Z" fill="#003478" fill-opacity="0.14"/>
<path d="M2276.6 2343C2288.1 2355.8 2303.7 2358.7 2308 2366.5C2312.4 2374.3 2305.5 2387 2299.8 2398.9C2294.2 2410.7 2289.8 2421.7 2281.7 2431.1C2273.6 2440.4 2261.8 2448.2 2248.4 2450.3C2235.1 2452.5 2220.1 2449.1 2207.4 2441.2C2194.7 2433.4 2184.1 2421.1 2179.7 2406.9C2175.2 2392.8 2176.8 2376.8 2183.2 2363.9C2189.6 2351.1 2200.8 2341.4 2212.8 2328.8C2224.7 2316.1 2237.3 2300.4 2247.4 2304C2257.5 2307.5 2265 2330.3 2276.6 2343Z" fill="#003478" fill-opacity="0.14"/>
<path d="M1378.43 3345.18C1390.83 3354.28 1404.43 3361.58 1413.03 3373.88C1421.53 3386.18 1425.13 3403.38 1421.43 3419.48C1417.83 3435.58 1407.03 3450.48 1392.93 3462.18C1378.73 3473.78 1361.23 3482.18 1347.13 3477.48C1333.03 3472.78 1322.33 3454.98 1306.73 3443.78C1291.13 3432.68 1270.53 3428.08 1267.43 3417.98C1264.33 3407.88 1278.63 3392.18 1287.93 3378.38C1297.23 3364.68 1301.43 3352.68 1309.93 3342.28C1318.43 3331.88 1331.03 3323.08 1342.93 3324.08C1354.93 3325.08 1366.03 3336.08 1378.43 3345.18Z" fill="#003478" fill-opacity="0.14"/>
<path d="M1006.5 4461.7C1017.9 4474.1 1025.5 4487.5 1028.6 4501.3C1031.8 4515.2 1030.4 4529.5 1028.8 4546.5C1027.1 4563.5 1025 4583.1 1014.3 4588.1C1003.7 4593 984.301 4583.1 968.101 4578.8C952.001 4574.5 938.901 4575.7 924.201 4572.1C909.501 4568.5 893.201 4560.1 887.901 4547.3C882.701 4534.5 888.601 4517.3 897.701 4504.8C906.801 4492.2 919.001 4484.4 930.801 4472.2C942.501 4459.9 953.801 4443.3 966.901 4440.6C980.101 4438 995.201 4449.4 1006.5 4461.7Z" fill="#003478" fill-opacity="0.14"/>
<path d="M1581.7 905.1C1594.1 914.2 1607.7 921.5 1616.3 933.8C1624.8 946.1 1628.4 963.3 1624.7 979.4C1621.1 995.5 1610.3 1010.4 1596.2 1022.1C1582 1033.7 1564.5 1042.1 1550.4 1037.4C1536.3 1032.7 1525.6 1014.9 1510 1003.7C1494.4 992.6 1473.8 988 1470.7 977.9C1467.6 967.8 1481.9 952.1 1491.2 938.3C1500.5 924.6 1504.7 912.6 1513.2 902.2C1521.7 891.8 1534.3 883 1546.2 884C1558.2 885 1569.3 896 1581.7 905.1Z" fill="#003478" fill-opacity="0.14"/>
<path d="M1187.29 689.141C1194.99 701.441 1196.19 716.041 1195.29 727.841C1194.29 739.641 1191.19 748.641 1192.99 764.241C1194.79 779.841 1201.49 802.041 1195.29 811.941C1189.19 821.841 1170.09 819.441 1151.09 819.441C1132.09 819.441 1112.99 821.841 1100.19 814.141C1087.49 806.341 1080.99 788.441 1079.39 771.741C1077.79 755.041 1080.99 739.441 1090.89 731.341C1100.79 723.241 1117.39 722.641 1128.49 711.441C1139.59 700.241 1145.39 678.541 1155.29 672.741C1165.29 666.841 1179.49 676.841 1187.29 689.141Z" fill="#FFBB3D" fill-opacity="0.2"/>
<path d="M1859.7 3421.8C1871.5 3434.1 1884.1 3441.6 1893.4 3453.9C1902.7 3466.3 1908.6 3483.5 1905.9 3499.9C1903.3 3516.3 1892.1 3531.9 1877.3 3537.2C1862.6 3542.6 1844.3 3537.6 1826 3537.6C1807.7 3537.5 1789.4 3542.5 1781.4 3535C1773.4 3527.5 1775.7 3507.6 1772.1 3490.9C1768.6 3474.2 1759.3 3460.7 1761.1 3449.6C1762.9 3438.4 1775.8 3429.6 1788.5 3417.5C1801.2 3405.4 1813.6 3390.1 1825.3 3391.1C1837 3392 1847.9 3409.4 1859.7 3421.8Z" fill="#003478" fill-opacity="0.14"/>
<path d="M1971.3 5190.4C1979.8 5195.2 1985.5 5205.2 1993.8 5217.6C2002 5229.9 2012.7 5244.5 2011.7 5257.7C2010.7 5270.9 1998 5282.6 1984.1 5293.5C1970.2 5304.5 1955.1 5314.5 1939.8 5314.8C1924.6 5315 1909.2 5305.3 1893.8 5294.9C1878.5 5284.4 1863.3 5273.1 1863.7 5260.2C1864.2 5247.2 1880.3 5232.5 1891.7 5222.1C1903 5211.6 1909.5 5205.3 1916.8 5200.1C1924 5195 1932 5190.9 1941.7 5188.6C1951.4 5186.3 1962.7 5185.7 1971.3 5190.4Z" fill="#003478" fill-opacity="0.14"/>
<path d="M1240.4 5628.7C1249.5 5641.3 1248.5 5661.8 1253 5679.6C1257.4 5697.3 1267.3 5712.3 1265.6 5725.5C1264 5738.7 1250.8 5750 1236.7 5754.9C1222.7 5759.9 1207.9 5758.5 1193.1 5758.2C1178.4 5758 1163.9 5759.1 1152.2 5753.3C1140.6 5747.6 1131.8 5735.2 1125.2 5720.7C1118.6 5706.1 1114.2 5689.6 1121.4 5679.6C1128.5 5669.6 1147.3 5666.2 1161.1 5655.1C1175 5644 1184 5625.2 1198.1 5618.2C1212.2 5611.2 1231.4 5616 1240.4 5628.7Z" fill="#003478" fill-opacity="0.14"/>
<path d="M1799.68 3940.94C1810.38 3950.64 1818.48 3961.84 1820.58 3973.84C1822.68 3985.74 1818.78 3998.34 1814.38 4010.44C1809.98 4022.54 1805.18 4034.24 1796.48 4043.54C1787.68 4052.84 1775.18 4059.84 1760.18 4063.24C1745.18 4066.54 1727.68 4066.24 1719.68 4056.64C1711.68 4047.14 1713.08 4028.34 1705.98 4011.24C1698.88 3994.14 1683.38 3978.64 1686.38 3969.04C1689.28 3959.54 1710.78 3955.84 1726.58 3947.84C1742.38 3939.84 1752.48 3927.54 1764.18 3925.34C1775.78 3923.24 1789.08 3931.24 1799.68 3940.94Z" fill="#003478" fill-opacity="0.14"/>
<path d="M2009.54 4807.47C2020.94 4819.87 2028.54 4833.27 2031.64 4847.07C2034.84 4860.97 2033.44 4875.27 2031.84 4892.27C2030.14 4909.27 2028.04 4928.87 2017.34 4933.87C2006.74 4938.77 1987.34 4928.87 1971.14 4924.57C1955.04 4920.27 1941.94 4921.47 1927.24 4917.87C1912.54 4914.27 1896.24 4905.87 1890.94 4893.07C1885.74 4880.27 1891.64 4863.07 1900.74 4850.57C1909.84 4837.97 1922.04 4830.17 1933.84 4817.97C1945.54 4805.67 1956.84 4789.07 1969.94 4786.37C1983.14 4783.77 1998.24 4795.17 2009.54 4807.47Z" fill="#003478" fill-opacity="0.14"/>
<g clip-path="url(#clip10_275_417)">
<path d="M2082.5 3744.2C2088.2 3751.2 2091.2 3759 2095.4 3767.5C2099.5 3776 2104.7 3785.1 2107 3798.1C2109.4 3811 2108.9 3827.8 2100.6 3839.9C2092.3 3851.9 2076.1 3859.2 2065.2 3852.1C2054.2 3844.9 2048.5 3823.4 2035 3813C2021.6 3802.6 2000.4 3803.4 1996.9 3797.4C1993.5 3791.4 2007.8 3778.5 2014.3 3764.7C2020.9 3750.8 2019.8 3735.9 2026.1 3729.2C2032.4 3722.4 2046.2 3723.7 2057.3 3727.4C2068.4 3731.1 2076.8 3737.2 2082.5 3744.2Z" fill="#FFBB3D" fill-opacity="0.2"/>
</g>
<path d="M1588.1 4303.9C1599.3 4316.7 1616.3 4316.9 1628.6 4325.6C1640.9 4334.2 1648.6 4351.3 1641 4359.8C1633.3 4368.4 1610.4 4368.5 1595.4 4379.1C1580.4 4389.7 1573.2 4410.7 1566.6 4409.8C1560.1 4408.9 1554.2 4386.1 1538.8 4375.7C1523.4 4365.2 1498.4 4367.2 1490.6 4359.6C1482.8 4352.1 1492.3 4335.1 1499 4318.1C1505.7 4301.2 1509.8 4284.2 1520.5 4271.2C1531.3 4258.2 1548.6 4249 1560 4257.2C1571.4 4265.5 1576.9 4291 1588.1 4303.9Z" fill="#FFBB3D" fill-opacity="0.2"/>
<path d="M1528 5166.6C1532 5173.9 1522 5196 1521.1 5211C1520.2 5226 1528.4 5233.9 1528.6 5241C1528.8 5248.1 1521.1 5254.5 1513 5265.1C1504.9 5275.8 1496.4 5290.7 1485.3 5294.4C1474.2 5298.1 1460.5 5290.4 1453.4 5279.4C1446.3 5268.5 1445.9 5254.1 1437.4 5239.7C1428.9 5225.2 1412.4 5210.6 1411.1 5196.8C1409.8 5183.1 1423.9 5170.1 1439.3 5166.5C1454.6 5163 1471.3 5168.9 1488.7 5168C1506 5167.1 1524 5159.4 1528 5166.6Z" fill="#FFBB3D" fill-opacity="0.2"/>
<path d="M199.2 2105.5C206.9 2117.8 208.1 2132.4 207.2 2144.2C206.2 2156 203.1 2165 204.9 2180.6C206.7 2196.2 213.4 2218.4 207.2 2228.3C201.1 2238.2 182 2235.8 163 2235.8C144 2235.8 124.9 2238.2 112.1 2230.5C99.3998 2222.7 92.8998 2204.8 91.2998 2188.1C89.6998 2171.4 92.8998 2155.8 102.8 2147.7C112.7 2139.6 129.3 2139 140.4 2127.8C151.5 2116.6 157.3 2094.9 167.2 2089.1C177.2 2083.2 191.4 2093.2 199.2 2105.5Z" fill="#FFBB3D" fill-opacity="0.2"/>
<path d="M2133.1 3217.8C2138.7 3231.3 2127.2 3250.9 2115.9 3268.4C2104.5 3285.9 2093.2 3301.4 2080.1 3302.5C2066.9 3303.6 2051.9 3290.3 2044.6 3275.1C2037.3 3259.9 2037.7 3242.8 2045.2 3228.2C2052.8 3213.7 2067.4 3201.6 2086.1 3199.3C2104.7 3197 2127.4 3204.3 2133.1 3217.8Z" fill="#003478" fill-opacity="0.14"/>
<path d="M2666.5 1411.7C2672.6 1421.9 2659.5 1443.5 2646.9 1462.3C2634.3 1481 2622.1 1497 2609.2 1497.5C2596.3 1498 2582.5 1482.9 2571.4 1464.9C2560.2 1447 2551.6 1426.1 2558.5 1415.4C2565.3 1404.7 2587.7 1404.2 2611.4 1403.3C2635.2 1402.5 2660.4 1401.4 2666.5 1411.7Z" fill="#003478" fill-opacity="0.14"/>
<path d="M2455.2 1342.5C2462.9 1354.8 2464.1 1369.4 2463.2 1381.2C2462.2 1393 2459.1 1402 2460.9 1417.6C2462.7 1433.2 2469.4 1455.4 2463.2 1465.3C2457.1 1475.2 2438 1472.8 2419 1472.8C2400 1472.8 2380.9 1475.2 2368.1 1467.5C2355.4 1459.7 2348.9 1441.8 2347.3 1425.1C2345.7 1408.4 2348.9 1392.8 2358.8 1384.7C2368.7 1376.6 2385.3 1376 2396.4 1364.8C2407.5 1353.6 2413.3 1331.9 2423.2 1326.1C2433.2 1320.2 2447.4 1330.2 2455.2 1342.5Z" fill="#FFBB3D" fill-opacity="0.2"/>
<path d="M2250.1 1015.9C2261.3 1028.7 2278.3 1028.9 2290.6 1037.6C2302.9 1046.2 2310.6 1063.3 2303 1071.8C2295.3 1080.4 2272.4 1080.5 2257.4 1091.1C2242.4 1101.7 2235.2 1122.7 2228.6 1121.8C2222.1 1120.9 2216.2 1098.1 2200.8 1087.7C2185.4 1077.2 2160.4 1079.2 2152.6 1071.6C2144.8 1064.1 2154.3 1047.1 2161 1030.1C2167.7 1013.2 2171.8 996.2 2182.5 983.2C2193.3 970.2 2210.6 961 2222 969.2C2233.4 977.5 2238.9 1003 2250.1 1015.9Z" fill="#FFBB3D" fill-opacity="0.2"/>
<path d="M2176.6 3603C2188.1 3615.8 2203.7 3618.7 2208 3626.5C2212.4 3634.3 2205.5 3647 2199.8 3658.9C2194.2 3670.7 2189.8 3681.7 2181.7 3691.1C2173.6 3700.4 2161.8 3708.2 2148.4 3710.3C2135.1 3712.5 2120.1 3709.1 2107.4 3701.2C2094.7 3693.4 2084.1 3681.1 2079.7 3666.9C2075.2 3652.8 2076.8 3636.8 2083.2 3623.9C2089.6 3611.1 2100.8 3601.4 2112.8 3588.8C2124.7 3576.1 2137.3 3560.4 2147.4 3564C2157.5 3567.5 2165 3590.3 2176.6 3603Z" fill="#003478" fill-opacity="0.14"/>
<path d="M1986.78 4352.24C1995.48 4359.34 1993.98 4379.64 1992.98 4395.44C1992.08 4411.14 1991.58 4422.24 1990.68 4435.84C1989.78 4449.44 1988.58 4465.54 1980.08 4471.34C1971.68 4477.14 1956.08 4472.74 1940.28 4472.94C1924.58 4473.04 1908.78 4477.64 1893.48 4474.04C1878.18 4470.44 1863.28 4458.64 1862.08 4444.74C1860.88 4430.84 1873.18 4415.04 1882.98 4402.44C1892.78 4389.84 1900.08 4380.64 1909.18 4373.64C1918.38 4366.74 1929.38 4361.94 1944.28 4356.54C1959.28 4351.14 1978.08 4345.14 1986.78 4352.24Z" fill="#003478" fill-opacity="0.14"/>
<path d="M1644.4 1287.3C1653.1 1294.4 1651.6 1314.7 1650.6 1330.5C1649.7 1346.2 1649.2 1357.3 1648.3 1370.9C1647.4 1384.5 1646.2 1400.6 1637.7 1406.4C1629.3 1412.2 1613.7 1407.8 1597.9 1408C1582.2 1408.1 1566.4 1412.7 1551.1 1409.1C1535.8 1405.5 1520.9 1393.7 1519.7 1379.8C1518.5 1365.9 1530.8 1350.1 1540.6 1337.5C1550.4 1324.9 1557.7 1315.7 1566.8 1308.7C1576 1301.8 1587 1297 1601.9 1291.6C1616.9 1286.2 1635.7 1280.2 1644.4 1287.3Z" fill="#003478" fill-opacity="0.14"/>
<path d="M1701.13 3045.02C1714.03 3052.92 1724.13 3064.92 1732.93 3078.32C1741.63 3091.82 1749.03 3106.62 1749.63 3121.82C1750.23 3136.92 1744.13 3152.52 1735.33 3165.92C1726.63 3179.32 1715.23 3190.62 1701.83 3199.52C1688.33 3208.42 1672.83 3214.92 1657.73 3214.22C1642.63 3213.42 1627.93 3205.62 1613.83 3197.12C1599.63 3188.62 1586.03 3179.52 1578.73 3166.82C1571.33 3154.12 1570.23 3137.72 1570.03 3121.32C1569.83 3104.82 1570.53 3088.32 1577.33 3074.52C1584.03 3060.82 1596.93 3049.92 1611.23 3042.92C1625.63 3035.82 1641.43 3032.72 1657.13 3033.02C1672.83 3033.32 1688.33 3037.12 1701.13 3045.02Z" fill="#FFBB3D" fill-opacity="0.2"/>
<path d="M2225.6 1649.3C2239.3 1650.4 2260.3 1650.3 2268.7 1658.5C2277.1 1666.7 2272.9 1683.2 2263.3 1693.3C2253.7 1703.5 2238.8 1707.4 2227.2 1716.1C2215.6 1724.8 2207.3 1738.3 2198.9 1738.5C2190.4 1738.7 2181.8 1725.6 2169.5 1717.1C2157.2 1708.7 2141.3 1704.8 2133.8 1695.1C2126.4 1685.3 2127.5 1669.7 2136 1660.6C2144.5 1651.4 2160.5 1648.6 2172.2 1646.8C2183.9 1645 2191.5 1644.2 2198.4 1645C2205.4 1645.7 2211.8 1648.1 2225.6 1649.3Z" fill="#FFBB3D" fill-opacity="0.2"/>
<path d="M2654.5 418.7C2665.9 431.1 2673.5 444.5 2676.6 458.3C2679.8 472.2 2678.4 486.5 2676.8 503.5C2675.1 520.5 2673 540.1 2662.3 545.1C2651.7 550 2632.3 540.1 2616.1 535.8C2600 531.5 2586.9 532.7 2572.2 529.1C2557.5 525.5 2541.2 517.1 2535.9 504.3C2530.7 491.5 2536.6 474.3 2545.7 461.8C2554.8 449.2 2567 441.4 2578.8 429.2C2590.5 416.9 2601.8 400.3 2614.9 397.6C2628.1 395 2643.2 406.4 2654.5 418.7Z" fill="#003478" fill-opacity="0.14"/>
<path d="M2432.7 6854.8C2444.5 6867.1 2457.1 6874.6 2466.4 6886.9C2475.7 6899.3 2481.6 6916.5 2478.9 6932.9C2476.3 6949.3 2465.1 6964.9 2450.3 6970.2C2435.6 6975.6 2417.3 6970.6 2399 6970.6C2380.7 6970.5 2362.4 6975.5 2354.4 6968C2346.4 6960.5 2348.7 6940.6 2345.1 6923.9C2341.6 6907.2 2332.3 6893.7 2334.1 6882.6C2335.9 6871.4 2348.8 6862.6 2361.5 6850.5C2374.2 6838.4 2386.6 6823.1 2398.3 6824.1C2410 6825 2420.9 6842.4 2432.7 6854.8Z" fill="#003478" fill-opacity="0.14"/>
<path d="M99.4592 6740.52C110.959 6753.32 126.559 6756.22 130.859 6764.02C135.259 6771.82 128.359 6784.52 122.659 6796.42C117.059 6808.22 112.659 6819.22 104.559 6828.62C96.4592 6837.92 84.6592 6845.72 71.2592 6847.82C57.9592 6850.02 42.9592 6846.62 30.2592 6838.72C17.5592 6830.92 6.95917 6818.62 2.55917 6804.42C-1.94083 6790.32 -0.340828 6774.32 6.05917 6761.42C12.4592 6748.62 23.6592 6738.92 35.6592 6726.32C47.5592 6713.62 60.1592 6697.92 70.2592 6701.52C80.3592 6705.02 87.8592 6727.82 99.4592 6740.52Z" fill="#003478" fill-opacity="0.14"/>
<path d="M56.8776 2378.82C62.9523 2391.15 69.4388 2398.66 74.2265 2410.99C79.0142 2423.42 82.0515 2440.66 80.6615 2457.1C79.323 2473.54 73.5572 2489.17 65.9381 2494.49C58.3705 2499.9 48.9496 2494.89 39.5286 2494.89C30.1077 2494.79 20.6868 2499.8 16.5684 2492.28C12.4499 2484.76 13.634 2464.82 11.7807 2448.08C9.97886 2431.34 5.19118 2417.81 6.11783 2406.68C7.04448 2395.46 13.6855 2386.64 20.2235 2374.51C26.7615 2362.38 33.1451 2347.04 39.1683 2348.05C45.1915 2348.95 50.8029 2366.39 56.8776 2378.82Z" fill="#003478" fill-opacity="0.14"/>
<path d="M2792.78 880.242C2801.48 887.342 2799.98 907.642 2798.98 923.442C2798.08 939.142 2797.58 950.242 2796.68 963.842C2795.78 977.442 2794.58 993.542 2786.08 999.342C2777.68 1005.14 2762.08 1000.74 2746.28 1000.94C2730.58 1001.04 2714.78 1005.64 2699.48 1002.04C2684.18 998.442 2669.28 986.642 2668.08 972.742C2666.88 958.842 2679.18 943.042 2688.98 930.442C2698.78 917.842 2706.08 908.642 2715.18 901.642C2724.38 894.742 2735.38 889.942 2750.28 884.542C2765.28 879.142 2784.08 873.142 2792.78 880.242Z" fill="#003478" fill-opacity="0.14"/>
<path d="M2700.2 3098.8C2711.4 3101.5 2724.3 3107.3 2726.8 3116.3C2729.3 3125.2 2721.4 3137.1 2712.9 3144.6C2704.5 3152 2695.5 3154.8 2688.2 3158.1C2681 3161.3 2675.5 3164.8 2663.5 3173.7C2651.6 3182.6 2633.2 3196.8 2621.7 3194.9C2610.2 3193.1 2605.7 3175.2 2609.6 3160.8C2613.4 3146.4 2625.7 3135.5 2630.4 3122.4C2635 3109.3 2632.1 3094 2637.4 3089.4C2642.7 3084.8 2656.4 3090.9 2667.9 3093.8C2679.5 3096.6 2689 3096.2 2700.2 3098.8Z" fill="#FFBB3D" fill-opacity="0.2"/>
<defs>
<clipPath id="clip0_275_417">
<rect width="775" height="500" fill="white" transform="translate(68 145)"/>
</clipPath>
<clipPath id="clip1_275_417">
<rect width="200" height="200" fill="white" transform="translate(523 6585)"/>
</clipPath>
<clipPath id="clip2_275_417">
<rect width="200" height="200" fill="white" transform="translate(860 6653)"/>
</clipPath>
<clipPath id="clip3_275_417">
<rect width="200" height="200" fill="white" transform="translate(586 1271)"/>
</clipPath>
<clipPath id="clip4_275_417">
<rect width="200" height="200" fill="white" transform="translate(1257 1688)"/>
</clipPath>
<clipPath id="clip5_275_417">
<rect width="200" height="200" fill="white" transform="translate(713 3765)"/>
</clipPath>
<clipPath id="clip6_275_417">
<rect width="200" height="200" fill="white" transform="translate(2431 4307)"/>
</clipPath>
<clipPath id="clip7_275_417">
<rect width="200" height="200" fill="white" transform="translate(1869 820)"/>
</clipPath>
<clipPath id="clip8_275_417">
<rect width="200" height="200" fill="white" transform="translate(2034 1367)"/>
</clipPath>
<clipPath id="clip9_275_417">
<rect width="200" height="200" fill="white" transform="translate(562 5694)"/>
</clipPath>
<clipPath id="clip10_275_417">
<rect width="200" height="200" fill="white" transform="translate(2008 3700)"/>
</clipPath>
</defs>
</svg>
