<svg width="2600" height="5238" viewBox="0 0 2600 5238" fill="none" xmlns="http://www.w3.org/2000/svg">
<g opacity="0.25">
<path d="M0 3041.74L2594.36 3036.09L2599.53 5231.98L5.17332 5237.64L0 3041.74Z" fill="url(#paint0_radial_221_30)" fill-opacity="0.23"/>
<path d="M493.59 2428.1L2167 2424.42L2170.69 4002.22L497.279 4005.9L493.59 2428.1Z" fill="url(#paint1_radial_221_30)" fill-opacity="0.41"/>
<path d="M2189.29 2093.52L2591.87 2092.64L2593.43 2760.62L2190.85 2761.5L2189.29 2093.52Z" fill="url(#paint2_radial_221_30)" fill-opacity="0.35"/>
<path d="M275 770.973L710.786 770.016L713.879 2093.07L278.093 2094.03L275 770.973Z" fill="url(#paint3_radial_221_30)" fill-opacity="0.55"/>
<path d="M1586.31 3912.71L2590.36 3910.5L2593.46 5235.13L1589.41 5237.33L1586.31 3912.71Z" fill="url(#paint4_radial_221_30)" fill-opacity="0.49"/>
<path d="M98 3476.21L1102.05 3474L1105.14 4798.63L101.097 4800.83L98 3476.21Z" fill="url(#paint5_radial_221_30)" fill-opacity="0.49"/>
<path d="M1133.87 2222.13L1655.32 2223.16L1650.2 2767.4L1120.08 2766.35L1133.87 2222.13Z" fill="url(#paint6_radial_221_30)" fill-opacity="0.21"/>
<path d="M1741.18 3400.51L2322.05 3399.24L2592.54 3816.14L2323.94 4203.15L1743.07 4204.42L1741.18 3400.51Z" fill="url(#paint7_radial_221_30)" fill-opacity="0.35"/>
<path d="M0 1.08252L487.751 0.0196436L488.923 497.577L1.1722 498.64L0 1.08252Z" fill="url(#paint8_radial_221_30)" fill-opacity="0.35"/>
<path d="M189.473 1928.72L984.329 1926.99L986.669 2920.25L191.813 2921.99L189.473 1928.72Z" fill="url(#paint9_radial_221_30)" fill-opacity="0.34"/>
<path d="M657.705 87.0513L1669.48 84.8465L1672.6 1409.47L660.826 1411.68L657.705 87.0513Z" fill="url(#paint10_radial_221_30)" fill-opacity="0.33"/>
<path d="M1195.48 4.7318L2163.13 4.73114L2207.26 790.538L1195.48 792.743L1195.48 4.7318Z" fill="url(#paint11_radial_221_30)" fill-opacity="0.44"/>
<path d="M1479.15 108.646L2528.82 111.191L2525.84 1427.69L1458.74 1425.1L1479.15 108.646Z" fill="url(#paint12_radial_221_30)" fill-opacity="0.41"/>
<path d="M1298.99 835.288L2451.85 832.757L2454.8 2096.3L1301.95 2098.83L1298.99 835.288Z" fill="url(#paint13_radial_221_30)" fill-opacity="0.62"/>
</g>
<defs>
<radialGradient id="paint0_radial_221_30" cx="0" cy="0" r="1" gradientUnits="userSpaceOnUse" gradientTransform="translate(500.536 4511.19) rotate(91.1253) scale(1180.68 880.044)">
<stop stop-color="white" stop-opacity="0"/>
<stop stop-color="#003478"/>
<stop offset="1" stop-color="#003478" stop-opacity="0"/>
</radialGradient>
<radialGradient id="paint1_radial_221_30" cx="0" cy="0" r="1" gradientUnits="userSpaceOnUse" gradientTransform="translate(1278.89 3249.68) rotate(-56.9343) scale(549.947 739.198)">
<stop stop-color="white" stop-opacity="0"/>
<stop stop-color="#FFBB3D"/>
<stop offset="1" stop-color="#FFBB3D" stop-opacity="0"/>
</radialGradient>
<radialGradient id="paint2_radial_221_30" cx="0" cy="0" r="1" gradientUnits="userSpaceOnUse" gradientTransform="translate(2326.36 2488.38) rotate(30.2511) scale(156.62 190.745)">
<stop stop-color="white" stop-opacity="0"/>
<stop stop-color="#003478"/>
<stop offset="1" stop-color="#003478" stop-opacity="0"/>
</radialGradient>
<radialGradient id="paint3_radial_221_30" cx="0" cy="0" r="1" gradientUnits="userSpaceOnUse" gradientTransform="translate(494 1432) rotate(-42.1182) scale(260.191 357.588)">
<stop stop-color="white" stop-opacity="0"/>
<stop stop-color="#FFBB3D"/>
<stop offset="0.824904" stop-color="#FFBB3D" stop-opacity="0"/>
</radialGradient>
<radialGradient id="paint4_radial_221_30" cx="0" cy="0" r="1" gradientUnits="userSpaceOnUse" gradientTransform="translate(2128.77 4752.51) rotate(-61.7693) scale(365.512 757.194)">
<stop stop-color="white" stop-opacity="0"/>
<stop stop-color="#FFBB3D"/>
<stop offset="0.824904" stop-color="#FFBB3D" stop-opacity="0"/>
</radialGradient>
<radialGradient id="paint5_radial_221_30" cx="0" cy="0" r="1" gradientUnits="userSpaceOnUse" gradientTransform="translate(571.5 3997) rotate(7.21092) scale(537.753 599.871)">
<stop stop-color="white" stop-opacity="0"/>
<stop stop-color="#FFBB3D"/>
<stop offset="0.824904" stop-color="#FFBB3D" stop-opacity="0"/>
</radialGradient>
<radialGradient id="paint6_radial_221_30" cx="0" cy="0" r="1" gradientUnits="userSpaceOnUse" gradientTransform="translate(1473.65 2362.58) rotate(89.6343) scale(113.894 163.563)">
<stop stop-color="white" stop-opacity="0"/>
<stop stop-color="#003478"/>
<stop offset="1" stop-color="#003478" stop-opacity="0"/>
</radialGradient>
<radialGradient id="paint7_radial_221_30" cx="0" cy="0" r="1" gradientUnits="userSpaceOnUse" gradientTransform="translate(2032.31 3853.67) rotate(15.433) scale(269.868 318.372)">
<stop stop-color="white" stop-opacity="0"/>
<stop stop-color="#003478"/>
<stop offset="1" stop-color="#003478" stop-opacity="0"/>
</radialGradient>
<radialGradient id="paint8_radial_221_30" cx="0" cy="0" r="1" gradientUnits="userSpaceOnUse" gradientTransform="translate(165.643 295.068) rotate(19.6932) scale(174.006 154.938)">
<stop stop-color="white" stop-opacity="0"/>
<stop stop-color="#003478"/>
<stop offset="1" stop-color="#003478" stop-opacity="0"/>
</radialGradient>
<radialGradient id="paint9_radial_221_30" cx="0" cy="0" r="1" gradientUnits="userSpaceOnUse" gradientTransform="translate(543.377 2489.23) rotate(-49.631) scale(405.994 243.254)">
<stop stop-color="white" stop-opacity="0"/>
<stop stop-color="#003478"/>
<stop offset="1" stop-color="#003478" stop-opacity="0"/>
</radialGradient>
<radialGradient id="paint10_radial_221_30" cx="0" cy="0" r="1" gradientUnits="userSpaceOnUse" gradientTransform="translate(1001.72 869.927) rotate(24.6957) scale(374.143 397.944)">
<stop stop-color="white" stop-opacity="0"/>
<stop stop-color="#003478"/>
<stop offset="1" stop-color="#003478" stop-opacity="0"/>
</radialGradient>
<radialGradient id="paint11_radial_221_30" cx="0" cy="0" r="1" gradientUnits="userSpaceOnUse" gradientTransform="translate(1536.37 250.993) rotate(24.6957) scale(374.143 397.944)">
<stop stop-color="white" stop-opacity="0"/>
<stop stop-color="#FFBB3D"/>
<stop offset="1" stop-color="#FFBB3D" stop-opacity="0"/>
</radialGradient>
<radialGradient id="paint12_radial_221_30" cx="0" cy="0" r="1" gradientUnits="userSpaceOnUse" gradientTransform="translate(2165 448.419) rotate(89.3761) scale(275.516 329.228)">
<stop stop-color="white" stop-opacity="0"/>
<stop stop-color="#003478"/>
<stop offset="1" stop-color="#003478" stop-opacity="0"/>
</radialGradient>
<radialGradient id="paint13_radial_221_30" cx="0" cy="0" r="1" gradientUnits="userSpaceOnUse" gradientTransform="translate(1921.47 1636.13) rotate(-28.359) scale(476.687 589.64)">
<stop stop-color="white" stop-opacity="0"/>
<stop stop-color="#FFBB3D"/>
<stop offset="0.824904" stop-color="#FFBB3D" stop-opacity="0"/>
</radialGradient>
</defs>
</svg>
